<mxfile host="Electron" modified="2024-07-04T19:11:45.881Z" agent="Mozilla/5.0 (X11; Linux x86_64) AppleWebKit/537.36 (KHTML, like Gecko) draw.io/22.1.18 Chrome/120.0.6099.199 Electron/28.1.2 Safari/537.36" etag="rLJ03_2zcHWdYIkxWuke" version="22.1.18" type="device">
  <diagram name="Page-1" id="5wJyQqMARzXPJ0OGq6rA">
    <mxGraphModel dx="7969" dy="5042" grid="1" gridSize="10" guides="1" tooltips="1" connect="1" arrows="1" fold="1" page="1" pageScale="1" pageWidth="1169" pageHeight="827" math="0" shadow="0">
      <root>
        <mxCell id="0" />
        <mxCell id="1" parent="0" />
        <mxCell id="6RiR2EWWeTwOWJ7hItFx-33" value="" style="rounded=0;whiteSpace=wrap;html=1;strokeColor=none;fontSize=48;" vertex="1" parent="1">
          <mxGeometry x="-50" y="-50" width="5400" height="5400" as="geometry" />
        </mxCell>
        <mxCell id="EY2qy6wNZ3T7vPEyGyEt-7" value="" style="shape=image;imageAspect=0;aspect=fixed;verticalLabelPosition=bottom;verticalAlign=top;image=data:image/png,iVBORw0KGgoAAAANSUhEUgAAASwAAAEsCAAAAABcFtGpAAAG80lEQVR4Ae3BwW0EQRDEMCn/oMsp6NEYnIEl5ZPJJ5NPJp9MPpl8Mvlk8snkk8knk08mn0w+mXwy+WTyyeSTySeTTyafTD6ZfDL5ZPLJ5JPJJ5NPJp9MPpl8Mvlk8snkk8knk08mn0w+mXwyScYZCUYhb0kyzkgwCnlLknFGglHIW5KMMxKMQt6SZJyRYBTyliTjjASjkLckGWckGIW8Jck4I8Eo5C1JxhkJRiFvSTLOSDAKeUuScUaCUchbkowzEoxC3pJknJFgFPKWJOOMBKOQtyQZZyQYhbwlyTgjwSjkLUnGGQlGIW9JMs5IMAp5S5JxRoJRyFuSjDMSjELekmSckWAU8pYk44wEo5C3JBlnJBiFvCXJOCPBKOQtScYZCUYhb0kyzkgwCnlLknFGglHIW5KMMxKMQt6SZJyRYBTyliTjjASjkLckGWckGIW8Jck4I8Eo5C1JxhkJRiFvSTLOSDAKeUuScUaCUchbkowzEoxC3pJknJFgFPKWJCOQYgRSjDMSSDICKUYgxTgjgSQjkGIEUowzEkgyAilGIMU4I4EkI5BiBFKMMxJIMgIpRiDFOCOBJCOQYgRSjDMSSDICKUYgxTgjgSQjkGIEUowzEkgyAilGIMU4I4EkI5BiBFKMMxJIMgIpRiDFOCOBJCOQYgRSjDMSSDICKUYgxTgjgSQjkGIEUowzEkgyAilGIMU4I4EkI5BiBFKMMxJIMgIpRiDFOCOBJCOQYgRSjDMSSDICKUYgxTgjgSQjkGIEUowzEkgyAilGIMU4I4EkI5BiBFKMMxJIMgIpRiDFOCOBJCOQYgRSjDMSSDICKUYgxTgjgSQjkGIEUowzEkgyAilGIMU4I4EkI5BiBFKMMxJIMgIpRiDFOCOBJCOQYgRSjDMSSDICKUYgxTgjgSQjkGIEUowzEkgyAilGIMU4I4EkI5BiBFKMMxJIMgIpRiDFOCOBJCOQYgRSjDMSSDICKUYgxTgjgdwZZ+QXyZ1xRn6R3Bln5BfJnXFGfpHcGWfkF8mdcUZ+kdwZZ+QXyZ1xRn6R3Bln5BfJnXFGfpHcGWfkF8mdcUZ+kdwZZ+QXyZ1xRn6R3Bln5BfJnXFGfpHcGWfkF8mdcUZ+kdwZZ+QXyZ1xRn6R3Bln5BfJnXFGfpHcGWfkF8mdcUZ+kdwZZ+QXyZ1xRn6R3Bln5BfJnXFGfpHcGWfkF8mdcUZ+kdwZZ+QXyZ1xRn6R3Bln5BfJnXFGfpHcGWfkF8mdcUZ+kdwZZ+QXSTLekmIEckaS8ZYUI5Azkoy3pBiBnJFkvCXFCOSMJOMtKUYgZyQZb0kxAjkjyXhLihHIGUnGW1KMQM5IMt6SYgRyRpLxlhQjkDOSjLekGIGckWS8JcUI5Iwk4y0pRiBnJBlvSTECOSPJeEuKEcgZScZbUoxAzkgy3pJiBHJGkvGWFCOQM5KMt6QYgZyRZLwlxQjkjCTjLSlGIGckGW9JMQI5I8l4S4oRyBlJxltSjEDOSDLekmIEckaS8ZYUI5Azkoy3pBiBnJFkvCXFCOSMJOMtKUYgZyQZb0kxAjkjyXhLihHIGUnGW1KMQM5IMt6SYgRyRpLxlhQjkDOSjLekGIGckWS8JcUI5Iwk4y0pRiBnJBlvSTECOSP/2AjkjPxjI5Az8o+NQM7IPzYCOSP/2AjkjPxjI5Az8o+NQM7IPzYCOSP/2AjkjPxjI5Az8o+NQM7IPzYCOSP/2AjkjPxjI5Az8o+NQM7IPzYCOSP/2AjkjPxjI5Az8o+NQM7IPzYCOSP/2AjkjPxjI5Az8o+NQM7IPzYCOSP/2AjkjPxjI5Az8o+NQM7IPzYCOSP/2AjkjPxjI5Az8o+NQM7IPzYCOSP/2AjkjPxjI5Az8o+NQM7IPzYCOSP/2AjkjNwZj0kwCgnkznhMglFIIHfGYxKMQgK5Mx6TYBQSyJ3xmASjkEDujMckGIUEcmc8JsEoJJA74zEJRiGB3BmPSTAKCeTOeEyCUUggd8ZjEoxCArkzHpNgFBLInfGYBKOQQO6MxyQYhQRyZzwmwSgkkDvjMQlGIYHcGY9JMAoJ5M54TIJRSCB3xmMSjEICuTMek2AUEsid8ZgEo5BA7ozHJBiFBHJnPCbBKCSQO+MxCUYhgdwZj0kwCgnkznhMglFIIHfGYxKMQgK5Mx6TYBQSyJ3xmASjkEDujMckGIUEcmc8JsEoJJA74zEJRiGB3BmPSTAKCeTOeEyCUUggd8ZjEoxCArkzHpNgFBLInfGYBKOQQO6MxyQYhQTyyeSTySeTTyafTD6ZfDL5ZPLJ5JPJJ5NPJp9MPpl8Mvlk8snkk8knk08mn0w+mXwy+WTyyeSTySeTTyafTD6ZfDL5ZPLJ5JPJJ5NPJp/sD+Nbnzw6nF7lAAAAAElFTkSuQmCC;fontSize=48;" parent="1" vertex="1">
          <mxGeometry width="300" height="300" as="geometry" />
        </mxCell>
        <mxCell id="EY2qy6wNZ3T7vPEyGyEt-8" value="" style="shape=image;imageAspect=0;aspect=fixed;verticalLabelPosition=bottom;verticalAlign=top;image=data:image/png,iVBORw0KGgoAAAANSUhEUgAAASwAAAEsCAAAAABcFtGpAAAGK0lEQVR4Ae3BsQ3AQBDDMGn/oZ0VXBjBF0fKqcmpyanJqcmpyanJqcmpyanJqcmpyanJqcmpyanJqcmpyanJqcmpyanJqcmpyanJqcmpyanJqcmpyanJqcmpyanJqcmpyanJqcmpyU6YkRfJTpiRF8lOmJEXyU6YkRfJTpiRF8lOmJEXyU6YkRfJTpiRF8lOmJEXyU6YkRfJTpiRF8lOmJEXyU6YkRfJTpiRF8lOmJEXyU6YkRfJTpiRF8lOmJEXyU6YkRfJTpiRF8lOmJEXyU6YkRfJTpiRF8lOmJEXyU6YkRfJTpiRF8lOmJEXyU6YkRfJTpiRF8lOmJEXyU6YkRfJTpiRF8lOmJEXyU6YkRfJTpiRF8lOmJEXyU6YkRfJqcmpyanJqcmpyanJqcmpyanJqcmpyanJqcmpyanJqcmpyanJqcmpyanJqcmpyanJqcmpyanJqcmpyanJqcmpyanJqcmpyanJqcmpyZNCQ/4lTwoN+Zc8KTTkX/Kk0JB/yZNCQ/4lTwoN+Zc8KTTkX/Kk0JB/yZNCQ/4lTwoN+Zc8KTTkX/Kk0JB/yZNCQ/4lTwoN+Zc8KTTkX/Kk0JB/yZNCQ/4lTwoN+Zc8KTTkX/Kk0JB/yZNCQ/4lTwoN+Zc8KTTkX/Kk0JB/yZNCQ/4lTwoN+Zc8KTTkX/Kk0JB/yZNCQ/4lTwoN+Zc8KTTkX/Kk0JB/yZNCQ/4lTwoN+Zc8KTTkX/Kk0JB/yZNCQ/4lO6EhM2FGCrITGjITZqQgO6EhM2FGCrITGjITZqQgO6EhM2FGCrITGjITZqQgO6EhM2FGCrITGjITZqQgO6EhM2FGCrITGjITZqQgO6EhM2FGCrITGjITZqQgO6EhM2FGCrITGjITZqQgO6EhM2FGCrITGjITZqQgO6EhM2FGCrITGjITZqQgO6EhM2FGCrITGjITZqQgO6EhM2FGCrITGjITZqQgO6EhM2FGCrITGjITZqQgO6EhM2FGCrITGjITZqQgO6EhM2FGCrITGjITZqQgO6EhM2FGCrITGjITZqQgO6EhM2FGCrITGjITZqQgO6EhM2FGCrITGjITZqQgO6EhM2FGCrITGjITZqQgO6EhM2FGCrITGjITZqQgO6EhM2FGCrITGjITZqQgO6EhM2FGCrITGjITZqQgO6EhM2FGCrITGjITZqQgO6EhM2FGCrITGjITZqQgO6EhM2FGCrITGjITZqQgO6EhM2FGCrITGjITZqQgO6EhM2FGCrITGjITZqQgO6EhM2FGCrITGjITZqQgO6EhM2FGCrITGjITZqQgO6EhM2FGCrITGjITZqQgO6EhM2FGCrITGjITZqQgO6EhM2FGCrITGjITZqQgO6EhM2FGCrITGjITZqQgO6EhM2FGCrITGjITZqQgO6EhM2FGCrITGjITZqQgO6EhM2FGCrITGjITZqQgO6EhM2FGCrITGjITZqQgO6EhM2FGCrITGjITZqQgO6EhM2FGClIJBZkJDSmEhhSkEgoyExpSCA0pSCUUZCY0pBAaUpBKKMhMaEghNKQglVCQmdCQQmhIQSqhIDOhIYXQkIJUQkFmQkMKoSEFqYSCzISGFEJDClIJBZkJDSmEhhSkEgoyExpSCA0pSCUUZCY0pBAaUpBKKMhMaEghNKQglVCQmdCQQmhIQSqhIDOhIYXQkIJUQkFmQkMKoSEFqYSCzISGFEJDClIJBZkJDSmEhhSkEgoyExpSCA0pSCUUZCY0pBAaUpBKKMhMaEghNKQglVCQmdCQQmhIQSqhIDOhIYXQkIJUQkFmQkMKoSEFqYSCzISGFEJDClIJBZkJDSmEhhSkEgoyExpSCA0pSCUUZCY0pBAaUpBKKMhMaEghNKQglVCQmdCQQmhIQSqhIDOhIYXQkIJUQkFmQkMKoSEFqYSCzISGFEJDClIJBZkJDSmEhhSkEgoyExpSCA0pSCUUZCY0pBAaUpBKKMhMaEghNKQglVCQmdCQQmhIQSqhIDOhIYXQkIKcmpyanJqcmpyanJqcmpyanJqcmpyanJqcmpyanJqcmpyanJqcmpyanJqcmpyanJqcmpyanJqcmpyanJqcmpyanJqcmpyanJqc2geGAFM8FvZcpgAAAABJRU5ErkJggg==;fontSize=48;" parent="1" vertex="1">
          <mxGeometry x="500" width="300" height="300" as="geometry" />
        </mxCell>
        <mxCell id="EY2qy6wNZ3T7vPEyGyEt-9" value="&lt;font style=&quot;font-size: 48px;&quot;&gt;ID=0&amp;nbsp; &amp;nbsp;(0,0)&lt;/font&gt;" style="text;html=1;align=center;verticalAlign=middle;resizable=0;points=[];autosize=1;strokeColor=none;fillColor=none;fontSize=48;" parent="1" vertex="1">
          <mxGeometry x="20" y="295" width="260" height="70" as="geometry" />
        </mxCell>
        <mxCell id="EY2qy6wNZ3T7vPEyGyEt-10" value="&lt;font style=&quot;font-size: 48px;&quot;&gt;ID=1&amp;nbsp; &amp;nbsp;(1,0)&lt;/font&gt;" style="text;html=1;align=center;verticalAlign=middle;resizable=0;points=[];autosize=1;strokeColor=none;fillColor=none;fontSize=48;" parent="1" vertex="1">
          <mxGeometry x="520" y="295" width="260" height="70" as="geometry" />
        </mxCell>
        <mxCell id="6RiR2EWWeTwOWJ7hItFx-1" value="" style="shape=image;imageAspect=0;aspect=fixed;verticalLabelPosition=bottom;verticalAlign=top;image=data:image/png,iVBORw0KGgoAAAANSUhEUgAAASwAAAEsCAAAAABcFtGpAAAGm0lEQVR4Ae3BwQ0DQRDDMKn/op0W/DAGwWFJeWry1OSpyVOTpyZPTZ6aPDV5avLU5KnJU5OnJk9Nnpo8NXlq8tTkqclTk6cmT02emjw1eWry1OSpyVOTpyZPTZ6aPDV5avLU5KnJU5OnJk9N/lJoyC35S6Eht+QvhYbckr8UGnJL/lJoyC35S6Eht+QvhYbckr8UGnJL/lJoyC35S6Eht+QvhYbckr8UGnJL/lJoyC35S6Eht+QvhYbckr8UGnJL/lJoyC35S6Eht+QvhYbckr8UGnJL/lJoyC35S6Eht+QvhYbckr8UGnJL/lJoyC35S6Eht+QvhYbckr8UGnJL/lJoyC35S6Eht+QvhYbckr8UGnJL/lJoyC35S6Eht+QvhYbckr8UGnJL/lJoyC2phIJ8nFRCQT5OKqEgHyeVUJCPk0ooyMdJJRTk46QSCvJxUgkF+TiphIJ8nFRCQT5OKqEgHyeVUJCPk0ooyMdJJRTk46QSCvJxUgkF+TiphIJ8nFRCQT5OKqEgHyeVUJCPk0ooyMdJJRTk46QSCvJxUgkF+TiphIJ8nFRCQT5OKqEgHyeVUJCPk0ooyMdJJRTk46QSCvJxUgkF+TiphIJ8nFRCQT5OKqEgHyeVUJCPk0ooyMdJJRTk42QnzEgjzEhBdsKMNMKMFGQnzEgjzEhBdsKMNMKMFGQnzEgjzEhBdsKMNMKMFGQnzEgjzEhBdsKMNMKMFGQnzEgjzEhBdsKMNMKMFGQnzEgjzEhBdsKMNMKMFGQnzEgjzEhBdsKMNMKMFGQnzEgjzEhBdsKMNMKMFGQnzEgjzEhBdsKMNMKMFGQnzEgjzEhBdsKMNMKMFGQnzEgjzEhBdsKMNMKMFGQnzEgjzEhBdsKMNMKMFGQnzEgjzEhBdsKMNMKMFGQnzEgjzEhBdsKMNMKMFGQnzEgjzEhBdsKMNMKMFGQnzEgjzEhBdsKMNMKMFGQnzEgjzEhBdsKMNMKMFGQnzEgjzEhBdsKMNMKMFGQnzEgjzEhBKuGWNMKMFKQSbkkjzEhBKuGWNMKMFKQSbkkjzEhBKuGWNMKMFKQSbkkjzEhBKuGWNMKMFKQSbkkjzEhBKuGWNMKMFKQSbkkjzEhBKuGWNMKMFKQSbkkjzEhBKuGWNMKMFKQSbkkjzEhBKuGWNMKMFKQSbkkjzEhBKuGWNMKMFKQSbkkjzEhBKuGWNMKMFKQSbkkjzEhBKuGWNMKMFKQSbkkjzEhBKuGWNMKMFKQSbkkjzEhBKuGWNMKMFKQSbkkjzEhBKuGWNMKMFKQSbkkjzEhBKuGWNMKMFKQSbkkjzEhBKuGWNMKMFKQSbkkjzEhBKuGWNMKMFKQSbkkjzEhBKuGWNMKMFKQSbkkjzEhBKuGWNMKMFKQSbkkjzEhBKuGWzISGFKQSbslMaEhBKuGWzISGFKQSbslMaEhBKuGWzISGFKQSbslMaEhBKuGWzISGFKQSbslMaEhBKuGWzISGFKQSbslMaEhBKuGWzISGFKQSbslMaEhBKuGWzISGFKQSbslMaEhBKuGWzISGFKQSbslMaEhBKuGWzISGFKQSbslMaEhBKuGWzISGFKQSbslMaEhBKuGWzISGFKQSbslMaEhBKuGWzISGFKQSbslMaEhBKuGWzISGFKQSbslMaEhBKuGWzISGFKQSbslMaEhBKuGWzISGFKQSbslMaEhBKuGWzISGFKQSbslMaEhBKuGWzISGFKQSbslMaEhBKuGWzISGFKQSbslMaEhBKuGWzISGFKQSZmQmFGRGKmFGZkJBZqQSZmQmFGRGKmFGZkJBZqQSZmQmFGRGKmFGZkJBZqQSZmQmFGRGKmFGZkJBZqQSZmQmFGRGKmFGZkJBZqQSZmQmFGRGKmFGZkJBZqQSZmQmFGRGKmFGZkJBZqQSZmQmFGRGKmFGZkJBZqQSZmQmFGRGKmFGZkJBZqQSZmQmFGRGKmFGZkJBZqQSZmQmFGRGKmFGZkJBZqQSZmQmFGRGKmFGZkJBZqQSZmQmFGRGKmFGZkJBZqQSZmQmFGRGKmFGZkJBZqQSZmQmFGRGKmFGZkJBZqQSZmQmFGRGKmFGZkJBZqQSZmQmFGRGKmFGZkJBZqQSZmQmFGRGKmFGZkJBZqQSZmQmFGRGKmFGZkJBZuSpyVOTpyZPTZ6aPDV5avLU5KnJU5OnJk9Nnpo8NXlq8tTkqclTk6cmT02emjw1eWry1OSpyVOTpyZPTZ6aPDV5avLU5KnJU5OnJk9NntoPBTJ4PPNmS30AAAAASUVORK5CYII=;fontSize=48;" vertex="1" parent="1">
          <mxGeometry x="500" y="500" width="300" height="300" as="geometry" />
        </mxCell>
        <mxCell id="6RiR2EWWeTwOWJ7hItFx-2" value="&lt;font style=&quot;font-size: 48px;&quot;&gt;ID=2&amp;nbsp; &amp;nbsp;(1,1)&lt;/font&gt;" style="text;html=1;align=center;verticalAlign=middle;resizable=0;points=[];autosize=1;strokeColor=none;fillColor=none;fontSize=48;" vertex="1" parent="1">
          <mxGeometry x="520" y="795" width="260" height="70" as="geometry" />
        </mxCell>
        <mxCell id="6RiR2EWWeTwOWJ7hItFx-3" value="" style="shape=image;imageAspect=0;aspect=fixed;verticalLabelPosition=bottom;verticalAlign=top;image=data:image/png,iVBORw0KGgoAAAANSUhEUgAAASwAAAEsCAAAAABcFtGpAAAG6klEQVR4Ae3BwQnEABDEMLv/ouda8GMJ4Ygkn0w+mXwy+WTyyeSTySeTTyafTD6ZfDL5ZPLJ5JPJJ5NPJp9MPpl8Mvlk8snkk8knk08mn0w+mXwy+WTyyeSTySeTTyafTD6ZfDL5ZPLJ5JNJMv6cBJKMPyeBJOPPSSDJ+HMSSDL+nASSjD8ngSTjz0kgyfhzEkgy/pwEkow/J4Ek489JIMn4cxJIMv6cBJKMPyeBJOPPSSDJ+HMSSDL+nASSjD8ngSTjz0kgyfhzEkgy/pwEkow/J4Ek489JIMn4cxJIMv6cBJKMPyeBJOPPSSDJ+HMSSDL+nASSjD8ngSTjz0kgyfhzEkgy/pwEkow/J4Ek489JIMn4cxJIMv6cBJKMZ8kbSTKeJW8kyXiWvJEk41nyRpKMZ8kbSTKeJW8kyXiWvJEk41nyRpKMZ8kbSTKeJW8kyXiWvJEk41nyRpKMZ8kbSTKeJW8kyXiWvJEk41nyRpKMZ8kbSTKeJW8kyXiWvJEk41nyRpKMZ8kbSTKeJW8kyXiWvJEk41nyRpKMZ8kbSTKeJW8kyXiWvJEk41nyRpKMZ8kbSTKeJW8kyXiWvJEk41nyRpKMZ8kbSTKeJW8kyXiWvJEk41nyRpKMZ8kbSTKeJW8kyQikGIEU44wEkoxAihFIMc5IIMkIpBiBFOOMBJKMQIoRSDHOSCDJCKQYgRTjjASSjECKEUgxzkggyQikGIEU44wEkoxAihFIMc5IIMkIpBiBFOOMBJKMQIoRSDHOSCDJCKQYgRTjjASSjECKEUgxzkggyQikGIEU44wEkoxAihFIMc5IIMkIpBiBFOOMBJKMQIoRSDHOSCDJCKQYgRTjjASSjECKEUgxzkggyQikGIEU44wEkoxAihFIMc5IIMkIpBiBFOOMBJKMQIoRSDHOSCDJCKQYgRTjjASSjECKEUgxzkggyQikGIEU44wEkoxAihFIMc5IIMkIpBiBFOOMBJKMQIoRSDHOSCDJCKQYgRTjjASSjECKEUgxzkggyQikGIEU44wEkoxAihFIMc5IIMkIpBiBFOOMBJKMQIoRSDHOSCDJCKQYgRTjjASSjECKEUgxzkggyQikGIEU44wEcmcUEowzckbujEKCcUbOyJ1RSDDOyBm5MwoJxhk5I3dGIcE4I2fkzigkGGfkjNwZhQTjjJyRO6OQYJyRM3JnFBKMM3JG7oxCgnFGzsidUUgwzsgZuTMKCcYZOSN3RiHBOCNn5M4oJBhn5IzcGYUE44yckTujkGCckTNyZxQSjDNyRu6MQoJxRs7InVFIMM7IGbkzCgnGGTkjd0YhwTgjZ+TOKCQYZ+SM3BmFBOOMnJE7o5BgnJEzcmcUEowzckbujEKCcUbOyJ1RSDDOyBm5MwoJxhk5I3dGIcE4I2fkzigkGGfkjNwZhQTjjJyRO6OQYJyRM3JnFBKMM3JG7oxCgnFGzsidUUgwzsgZuTMKCcYZOSN3RiHBOCNn5M4oJBhn5Iwk44ycGYGckWSckTMjkDOSjDNyZgRyRpJxRs6MQM5IMs7ImRHIGUnGGTkzAjkjyTgjZ0YgZyQZZ+TMCOSMJOOMnBmBnJFknJEzI5AzkowzcmYEckaScUbOjEDOSDLOyJkRyBlJxhk5MwI5I8k4I2dGIGckGWfkzAjkjCTjjJwZgZyRZJyRMyOQM5KMM3JmBHJGknFGzoxAzkgyzsiZEcgZScYZOTMCOSPJOCNnRiBnJBln5MwI5Iwk44ycGYGckWSckTMjkDOSjDNyZgRyRpJxRs6MQM5IMs7ImRHIGUnGGTkzAjkjyTgjZ0YgZyQZZ+TMCOSMJOOMnBmBnJFknJEzI5AzkowzcmYEckaScUbOjEDOSDLOyJkRyBlJxhkJRiHPkmSckWAU8ixJxhkJRiHPkmSckWAU8ixJxhkJRiHPkmSckWAU8ixJxhkJRiHPkmSckWAU8ixJxhkJRiHPkmSckWAU8ixJxhkJRiHPkmSckWAU8ixJxhkJRiHPkmSckWAU8ixJxhkJRiHPkmSckWAU8ixJxhkJRiHPkmSckWAU8ixJxhkJRiHPkmSckWAU8ixJxhkJRiHPkmSckWAU8ixJxhkJRiHPkmSckWAU8ixJxhkJRiHPkmSckWAU8ixJxhkJRiHPkmSckWAU8ixJxhkJRiHPkmSckWAU8ixJxhkJRiHPkmSckWAU8ixJxhkJRiHPkmSckWAU8ixJxhkJRiHPkmSckWAU8ixJxhkJRiHPkmSckWAU8iz5ZPLJ5JPJJ5NPJp9MPpl8Mvlk8snkk8knk08mn0w+mXwy+WTyyeSTySeTTyafTD6ZfDL5ZPLJ5JPJJ5NPJp9MPpl8Mvlk8snkk8knk0/2A/pJnTyd36RyAAAAAElFTkSuQmCC;fontSize=48;" vertex="1" parent="1">
          <mxGeometry y="500" width="300" height="300" as="geometry" />
        </mxCell>
        <mxCell id="6RiR2EWWeTwOWJ7hItFx-4" value="&lt;font style=&quot;font-size: 48px;&quot;&gt;ID=3&amp;nbsp; &amp;nbsp;(0,1)&lt;/font&gt;" style="text;html=1;align=center;verticalAlign=middle;resizable=0;points=[];autosize=1;strokeColor=none;fillColor=none;fontSize=48;" vertex="1" parent="1">
          <mxGeometry x="20" y="795" width="260" height="70" as="geometry" />
        </mxCell>
        <mxCell id="6RiR2EWWeTwOWJ7hItFx-5" value="" style="shape=image;imageAspect=0;aspect=fixed;verticalLabelPosition=bottom;verticalAlign=top;image=data:image/png,iVBORw0KGgoAAAANSUhEUgAAASwAAAEsCAAAAABcFtGpAAAHjklEQVR4Ae3BsQ0DQRDEMKn/osctKFgcHDwpn0w+mXwy+WTyyeSTySeTTyafTD6ZfDL5ZPLJ5JPJJ5NPJp9MPpl8Mvlk8snkk8knk08mn0w+mXwy+WTyyeSTySeTTyafTD6ZfDL5ZPLJ5JNJMgL5R6OQQJIRyD8ahQSSjED+0SgkkGQE8o9GIYEkI5B/NAoJJBmB/KNRSCDJCOQfjUICSUYg/2gUEkgyAvlHo5BAkhHIPxqFBJKMQP7RKCSQZATyj0YhgSQjkH80CgkkGYH8o1FIIMkI5B+NQgJJRiD/aBQSSDIC+UejkECSEcg/GoUEkoxA/tEoJJBkBPKPRiGBJCOQfzQKCSQZgfyjUUggyQjkH41CAklGIP9oFBJIMgL5R6OQQJIRyD8ahQSSjED+0SgkkGQE8o9GIYEkI5B/NAoJJBmB/KNRSCDJCOQfjUICSUYg/2gUEkgyAvlHo5BAkhHIPxqFBJKMQP7RKCSQZATyj0YhgSQjkH80CgnkznhMglFIIHfGYxKMQgK5Mx6TYBQSyJ3xmASjkEDujMckGIUEcmc8JsEoJJA74zEJRiGB3BmPSTAKCeTOeEyCUUggd8ZjEoxCArkzHpNgFBLInfGYBKOQQO6MxyQYhQRyZzwmwSgkkDvjMQlGIYHcGY9JMAoJ5M54TIJRSCB3xmMSjEICuTMek2AUEsid8ZgEo5BA7ozHJBiFBHJnPCbBKCSQO+MxCUYhgdwZj0kwCgnkznhMglFIIHfGYxKMQgK5Mx6TYBQSyJ3xmASjkEDujMckGIUEcmc8JsEoJJA74zEJRiGB3BmPSTAKCeTOeEyCUUggd8ZjEoxCArkzHpNgFBLInfGYBKOQQO6MxyQYhQRyZzwmwSgkkGQEUoxAihHIGUlGIMUIpBiBnJFkBFKMQIoRyBlJRiDFCKQYgZyRZARSjECKEcgZSUYgxQikGIGckWQEUoxAihHIGUlGIMUIpBiBnJFkBFKMQIoRyBlJRiDFCKQYgZyRZARSjECKEcgZSUYgxQikGIGckWQEUoxAihHIGUlGIMUIpBiBnJFkBFKMQIoRyBlJRiDFCKQYgZyRZARSjECKEcgZSUYgxQikGIGckWQEUoxAihHIGUlGIMUIpBiBnJFkBFKMQIoRyBlJRiDFCKQYgZyRZARSjECKEcgZSUYgxQikGIGckWQEUoxAihHIGUlGIMUIpBiBnJFkBFKMQIoRyBlJRiDFCKQYgZyRZARSjECKEcgZSUYgxQikGIGckWQEUoxAihHIGUlGIMUIpBiBnJFkBFKMQIoRyBlJRiDFCKQYgZyRZARSjECKEcgZSUYgxQikGIGckWQEUoxAihHIGbkzzkgxzkggd8YZKcYZCeTOOCPFOCOB3BlnpBhnJJA744wU44wEcmeckWKckUDujDNSjDMSyJ1xRopxRgK5M85IMc5IIHfGGSnGGQnkzjgjxTgjgdwZZ6QYZySQO+OMFOOMBHJnnJFinJFA7owzUowzEsidcUaKcUYCuTPOSDHOSCB3xhkpxhkJ5M44I8U4I4HcGWekGGckkDvjjBTjjARyZ5yRYpyRQO6MM1KMMxLInXFGinFGArkzzkgxzkggd8YZKcYZCeTOOCPFOCOB3BlnpBhnJJA744wU44wEcmeckWKckUDujDNSjDMSyJ1xRopxRgK5M85IMc5IIHfGGSnGGQnkzjgjxTgjgdwZZ6QYZySQO+OMFOOMBHJnnJFinJFAknFG3hqFBJKMM/LWKCSQZJyRt0YhgSTjjLw1CgkkGWfkrVFIIMk4I2+NQgJJxhl5axQSSDLOyFujkECScUbeGoUEkowz8tYoJJBknJG3RiGBJOOMvDUKCSQZZ+StUUggyTgjb41CAknGGXlrFBJIMs7IW6OQQJJxRt4ahQSSjDPy1igkkGSckbdGIYEk44y8NQoJJBln5K1RSCDJOCNvjUICScYZeWsUEkgyzshbo5BAknFG3hqFBJKMM/LWKCSQZJyRt0YhgSTjjLw1CgkkGWfkrVFIIMk4I2+NQgJJxhl5axQSSDLOyFujkECScUbeGoUEkowz8tYoJJBknJG3RiGBJOOMvDUKCSQZZ+StUUggr41AzoxCAnltBHJmFBLIayOQM6OQQF4bgZwZhQTy2gjkzCgkkNdGIGdGIYG8NgI5MwoJ5LURyJlRSCCvjUDOjEICeW0EcmYUEshrI5Azo5BAXhuBnBmFBPLaCOTMKCSQ10YgZ0Yhgbw2AjkzCgnktRHImVFIIK+NQM6MQgJ5bQRyZhQSyGsjkDOjkEBeG4GcGYUE8toI5MwoJJDXRiBnRiGBvDYCOTMKCeS1EciZUUggr41AzoxCAnltBHJmFBLIayOQM6OQQF4bgZwZhQTy2gjkzCgkkNdGIGdGIYG8NgI5MwoJ5LURyJlRSCCvjUDOjEICeW0EcmYUEshrI5Azo5BAXhuBnBmFBPLaCOTMKCSQ10YgZ0YhgXwy+WTyyeSTySeTTyafTD6ZfDL5ZPLJ5JPJJ5NPJp9MPpl8Mvlk8snkk8knk08mn0w+mXwy+WTyyeSTySeTTyafTD6ZfDL5ZPLJ5JPJJ/sB7l/oPN7e0SwAAAAASUVORK5CYII=;fontSize=48;" vertex="1" parent="1">
          <mxGeometry x="1000" width="300" height="300" as="geometry" />
        </mxCell>
        <mxCell id="6RiR2EWWeTwOWJ7hItFx-6" value="&lt;font style=&quot;font-size: 48px;&quot;&gt;ID=4&amp;nbsp; &amp;nbsp;(2,0)&lt;/font&gt;" style="text;html=1;align=center;verticalAlign=middle;resizable=0;points=[];autosize=1;strokeColor=none;fillColor=none;fontSize=48;" vertex="1" parent="1">
          <mxGeometry x="1020" y="295" width="260" height="70" as="geometry" />
        </mxCell>
        <mxCell id="6RiR2EWWeTwOWJ7hItFx-7" value="" style="shape=image;imageAspect=0;aspect=fixed;verticalLabelPosition=bottom;verticalAlign=top;image=data:image/png,iVBORw0KGgoAAAANSUhEUgAAASwAAAEsCAAAAABcFtGpAAAGoUlEQVR4Ae3BsQ3AQBDDMGn/oZ0VXBiPK0LKrya/mvxq8qvJrya/mvxq8qvJrya/mvxq8qvJrya/mvxq8qvJrya/mvxq8qvJrya/mvxq8qvJrya/mvxq8qvJrya/mvxq8qvJrya/mvxq8qvJrya/mlRCQRphRgqhIQWphII0wowUQkMKUgkFaYQZKYSGFKQSCtIIM1IIDSlIJRSkEWakEBpSkEooSCPMSCE0pCCVUJBGmJFCaEhBKqEgjTAjhdCQglRCQRphRgqhIQWphII0wowUQkMKUgkFaYQZKYSGFKQSCtIIM1IIDSlIJRSkEWakEBpSkEooSCPMSCE0pCCVUJBGmJFCaEhBKqEgjTAjhdCQglRCQRphRgqhIQWphII0wowUQkMKUgkFaYQZKYSGFKQSCtIIM1IIDSlIJRSkEWakEBpSkEooSCPMSCE0pCCVUJBGmJFCaEhBKqEgjTAjhdCQglRCQRphRgqhIQWphII0wowUQkMKUgkFaYQZKYSGFKQSCtIIM1IIDSlIJRSkEWakEBpSkEooSCPMSCE0pCCVUJBGmJFCaEhBKqEgjTAjhdCQglRCQRphRgqhIQWphII0wowUQkMKUgkFaYQZKYSGFKQSCtIIM1IIDSlIJRSkEWakEBpSkJPCjMzISWFGZuSkMCMzclKYkRk5KczIjJwUZmRGTgozMiMnhRmZkZPCjMzISWFGZuSkMCMzclKYkRk5KczIjJwUZmRGTgozMiMnhRmZkZPCjMzISWFGZuSkMCMzclKYkRk5KczIjJwUZmRGTgozMiMnhRmZkZPCjMzISWFGZuSkMCMzclKYkRk5KczIjJwUZmRGTgozMiMnhRmZkZPCjMzISWFGZuSkMCMzclKYkRk5KczIjJwUZmRGTgozMiMnhRmZkZPCjMzISWFGZuSkMCMzclKYkRk5KczIjJwUZmRGTgozMiMnhRmZkZPCjMzISWFGZuSkMCMzclKYkRk5KczIjJwUZmRGTgozMiMnhRmZkZPCjMzISWFGZuSkMCMzclKYkRk5KczIjJwUZmRGTgozMiMnhRmZkZPCjMzISWFGZuSkMCMzclKYkRk5KczIjJwUZmRGTgozMiMnhRmZkZPCjMzISWFGZuSkMCMzUgkFaYSLpCCVUJBGuEgKUgkFaYSLpCCVUJBGuEgKUgkFaYSLpCCVUJBGuEgKUgkFaYSLpCCVUJBGuEgKUgkFaYSLpCCVUJBGuEgKUgkFaYSLpCCVUJBGuEgKUgkFaYSLpCCVUJBGuEgKUgkFaYSLpCCVUJBGuEgKUgkFaYSLpCCVUJBGuEgKUgkFaYSLpCCVUJBGuEgKUgkFaYSLpCCVUJBGuEgKUgkFaYSLpCCVUJBGuEgKUgkFaYSLpCCVUJBGuEgKUgkFaYSLpCCVUJBGuEgKUgkFaYSLpCCVUJBGuEgKUgkFaYSLpCCVUJBGuEgKUgkFaYSLpCCVUJBGuEgKUgkFaYSLpCCVUJBGuEgKUgkFaYSLpCCVUJBGuEgKUglvSSMUZEYq4S1phILMSCW8JY1QkBmphLekEQoyI5XwljRCQWakEt6SRijIjFTCW9IIBZmRSnhLGqEgM1IJb0kjFGRGKuEtaYSCzEglvCWNUJAZqYS3pBEKMiOV8JY0QkFmpBLekkYoyIxUwlvSCAWZkUp4SxqhIDNSCW9JIxRkRirhLWmEgsxIJbwljVCQGamEt6QRCjIjlfCWNEJBZqQS3pJGKMiMVMJb0ggFmZFKeEsaoSAzUglvSSMUZEYq4S1phILMSCW8JY1QkBmphLekEQoyI5XwljRCQWakEt6SRijIjFTCW9IIBZmRSnhLGqEgM1IJb0kjFGRGKuEtaYSCzEglvCWNUJAZqYS3pBEKMiOV8JY0QkFmZCc8Jm/JTnhM3pKd8Ji8JTvhMXlLdsJj8pbshMfkLdkJj8lbshMek7dkJzwmb8lOeEzekp3wmLwlO+ExeUt2wmPyluyEx+Qt2QmPyVuyEx6Tt2QnPCZvyU54TN6SnfCYvCU74TF5S3bCY/KW7ITH5C3ZCY/JW7ITHpO3ZCc8Jm/JTnhM3pKd8Ji8JTvhMXlLdsJj8pbshMfkLdkJj8lbshMek7dkJzwmb8lOeEzekp3wmLwlO+ExeUt2wmPyluyEx+Qt+dXkV5NfTX41+dXkV5NfTX41+dXkV5NfTX41+dXkV5NfTX41+dXkV5NfTX41+dXkV5NfTX41+dXkV5NfTX41+dXkV5NfTX41+dXkV5NfTX41+dU+3ON3PHucCDgAAAAASUVORK5CYII=;fontSize=48;" vertex="1" parent="1">
          <mxGeometry x="1000" y="1000" width="300" height="300" as="geometry" />
        </mxCell>
        <mxCell id="6RiR2EWWeTwOWJ7hItFx-8" value="&lt;font style=&quot;font-size: 48px;&quot;&gt;ID=5&amp;nbsp; &amp;nbsp;(2,2)&lt;/font&gt;" style="text;html=1;align=center;verticalAlign=middle;resizable=0;points=[];autosize=1;strokeColor=none;fillColor=none;fontSize=48;" vertex="1" parent="1">
          <mxGeometry x="1020" y="1295" width="260" height="70" as="geometry" />
        </mxCell>
        <mxCell id="6RiR2EWWeTwOWJ7hItFx-9" value="" style="shape=image;imageAspect=0;aspect=fixed;verticalLabelPosition=bottom;verticalAlign=top;image=data:image/png,iVBORw0KGgoAAAANSUhEUgAAASwAAAEsCAAAAABcFtGpAAAGn0lEQVR4Ae3BwQnAMAADsbv9h3ZX8MOEBiLJU5OnJk9Nnpo8NXlq8tTkqclTk6cmT02emjw1eWry1OSpyVOTpyZPTZ6aPDV5avLU5KnJU5OnJk9Nnpo8NXlq8tTkqclTk6cmT02emjw1eWqyE2akEWakIDthRhphRgqyE2akEWakIDthRhphRgqyE2akEWakIDthRhphRgqyE2akEWakIDthRhphRgqyE2akEWakIDthRhphRgqyE2akEWakIDthRhphRgqyE2akEWakIDthRhphRgqyE2akEWakIDthRhphRgqyE2akEWakIDthRhphRgqyE2akEWakIDthRhphRgqyE2akEWakIDthRhphRgqyE2akEWakIDthRhphRgqyE2akEWakIDthRhphRgqyE2akEWakIDthRhphRgqyE2akEWakIDthRhphRgqyE2akEWakIDthRhphRgqyE2akEWakIDthRhphRgqyE2akEWakIDthRhphRgqyE2akEWakIDthRhphRgqyE2akEWakIDthRhphRgqyE2akEWakIDthRhphRgqyE2akEWakIDthRhphRgqyE2akEWakIDthRhphRgqyE2akEWakIDthRhphRgqyE2akEWakIDthRhphRgqyE2akEWakIDthRhphRgqyE2akEWakIDthRhphRgqyE2akEWakIDthRhphRgqyE2akEWakIDthRhphRgqyE2akEWakIDthRhphRgqyE2akEWakIDthRhphRgqyE2akEWakIDthRhphRgqyE2akEWakIDthRhphRgqyE2akEWakIDthRhphRgqyE2akEWakIDthRhphRgqyE2akEWakIDthRhphRgqyE2akEWakIDthRhphRgqyE2akEWakIDuhIYXQkLNkJzSkEBpyluyEhhRCQ86SndCQQmjIWbITGlIIDTlLdkJDCqEhZ8lOaEghNOQs2QkNKYSGnCU7oSGF0JCzZCc0pBAacpbshIYUQkPOkp3QkEJoyFmyExpSCA05S3ZCQwqhIWfJTmhIITTkLNkJDSmEhpwlO6EhhdCQs2QnNKQQGnKW7ISGFEJDzpKd0JBCaMhZshMaUggNOUt2QkMKoSFnyU5oSCE05CzZCQ0phIacJTuhIYXQkLNkJzSkEBpyluyEhhRCQ86SndCQQmjIWbITGlIIDTlLdkJDCqEhZ8lOaEghNOQs2QkNKYSGnCU7oSGF0JCzZCc0pBAacpbshIYUQkPOkp3QkEJoyFmyExpSCA05S3bCvaQgO+FeUpCdcC8pyE64lxRkJ9xLCrIT7iUF2Qn3koLshHtJQXbCvaQgO+FeUpCdcC8pyE64lxRkJ9xLCrIT7iUF2Qn3koLshHtJQXbCvaQgO+FeUpCdcC8pyE64lxRkJ9xLCrIT7iUF2Qn3koLshHtJQXbCvaQgO+FeUpCdcC8pyE64lxRkJ9xLCrIT7iUF2Qn3koLshHtJQXbCvaQgO+FeUpCdcC8pyE64lxRkJ9xLCrIT7iUFqYSz5I+kEs6SP5JKOEv+SCrhLPkjqYSz5I+kEs6SP5JKOEv+SCrhLPkjqYSz5I+kEs6SP5JKOEv+SCrhLPkjqYSz5I+kEs6SP5JKOEv+SCrhLPkjqYSz5I+kEs6SP5JKOEv+SCrhLPkjqYSz5I+kEs6SP5JKOEv+SCrhLPkjqYSz5I+kEs6SP5JKOEv+SCrhLPkjqYSz5I+kEs6SP5JKOEv+SCrhLPkjqYSz5I+kEs6SP5JKOEv+SCrhLPkjqYSz5I9kJzRkJsxIQXZCQ2bCjBRkJzRkJsxIQXZCQ2bCjBRkJzRkJsxIQXZCQ2bCjBRkJzRkJsxIQXZCQ2bCjBRkJzRkJsxIQXZCQ2bCjBRkJzRkJsxIQXZCQ2bCjBRkJzRkJsxIQXZCQ2bCjBRkJzRkJsxIQXZCQ2bCjBRkJzRkJsxIQXZCQ2bCjBRkJzRkJsxIQXZCQ2bCjBRkJzRkJsxIQXZCQ2bCjBRkJzRkJsxIQXZCQ2bCjBRkJzRkJsxIQXZCQ2bCjBRkJzRkJsxIQXZCQ2bCjBRkJzRkJsxIQXZCQ2bCjBRkJzRkJsxIQXZCQ2bCjBRkJzRkJsxIQXZCQ2bCjBRkJzRkJsxIQXZCQ2bCjBRkJzRkJsxIQXZCQ2bCjBTkqclTk6cmT02emjw1eWry1OSpyVOTpyZPTZ6aPDV5avLU5KnJU5OnJk9Nnpo8NXlq8tTkqclTk6cmT02emjw1eWry1OSpyVOTpyZPTZ7aB/s1eDyj7PRJAAAAAElFTkSuQmCC;fontSize=48;" vertex="1" parent="1">
          <mxGeometry y="1000" width="300" height="300" as="geometry" />
        </mxCell>
        <mxCell id="6RiR2EWWeTwOWJ7hItFx-10" value="&lt;font style=&quot;font-size: 48px;&quot;&gt;ID=6&amp;nbsp; &amp;nbsp;(0,2)&lt;/font&gt;" style="text;html=1;align=center;verticalAlign=middle;resizable=0;points=[];autosize=1;strokeColor=none;fillColor=none;fontSize=48;" vertex="1" parent="1">
          <mxGeometry x="20" y="1295" width="260" height="70" as="geometry" />
        </mxCell>
        <mxCell id="6RiR2EWWeTwOWJ7hItFx-11" value="" style="shape=image;imageAspect=0;aspect=fixed;verticalLabelPosition=bottom;verticalAlign=top;image=data:image/png,iVBORw0KGgoAAAANSUhEUgAAASwAAAEsCAAAAABcFtGpAAAGkUlEQVR4Ae3BwQkEMQDEMLv/ouda8COEC6wkn0w+mXwy+WTyyeSTySeTTyafTD6ZfDL5ZPLJ5JPJJ5NPJp9MPpl8Mvlk8snkk8knk08mn0w+mXwy+WTyyeSTySeTTyafTD6ZfDL5ZPLJ5JPJOaOQYBRyl5wzCglGIXfJOaOQYBRyl5wzCglGIXfJOaOQYBRyl5wzCglGIXfJOaOQYBRyl5wzCglGIXfJOaOQYBRyl5wzCglGIXfJOaOQYBRyl5wzCglGIXfJOaOQYBRyl5wzCglGIXfJOaOQYBRyl5wzCglGIXfJOaOQYBRyl5wzCglGIXfJOaOQYBRyl5wzCglGIXfJOaOQYBRyl5wzCglGIXfJOaOQYBRyl5wzCglGIXfJOaOQYBRyl5wzCglGIXfJOaOQYBRyl5wzCglGIXfJOaOQYBRyl5wzCglGIXfJOaOQYBRyl5wzCglGIXfJOaOQYBRyl5wzCglGIXfJOaOQYBRyl5wzCglGIXfJOaOQYBRylyQjkGNGIXdJMgI5ZhRylyQjkGNGIXdJMgI5ZhRylyQjkGNGIXdJMgI5ZhRylyQjkGNGIXdJMgI5ZhRylyQjkGNGIXdJMgI5ZhRylyQjkGNGIXdJMgI5ZhRylyQjkGNGIXdJMgI5ZhRylyQjkGNGIXdJMgI5ZhRylyQjkGNGIXdJMgI5ZhRylyQjkGNGIXdJMgI5ZhRylyQjkGNGIXdJMgI5ZhRylyQjkGNGIXdJMgI5ZhRylyQjkGNGIXdJMgI5ZhRylyQjkGNGIXdJMgI5ZhRylyQjkGNGIXdJMgI5ZhRylyQjkGNGIXdJMgI5ZhRylyQjkGNGIXdJMgI5ZhRylyQjkGNGIXdJMgI5ZhRylyQjkGNGIXdJMgI5ZhRylyQjkMvGMRJIMgK5bBwjgSQjkMvGMRJIMgK5bBwjgSQjkMvGMRJIMgK5bBwjgSQjkMvGMRJIMgK5bBwjgSQjkMvGMRJIMgK5bBwjgSQjkMvGMRJIMgK5bBwjgSQjkMvGMRJIMgK5bBwjgSQjkMvGMRJIMgK5bBwjgSQjkMvGMRJIMgK5bBwjgSQjkMvGMRJIMgK5bBwjgSQjkMvGMRJIMgK5bBwjgSQjkMvGMRJIMgK5bBwjgSQjkMvGMRJIMgK5bBwjgSQjkMvGMRJIMgK5bBwjgSQjkMvGMRJIMgK5bBwjgSQjkMvGMRJIMgK5bBwjgSQjkMvGMRJIMgK5bBwjgSQjkMvGMRJIMgK5bBwjgSQjkMvGMRLIXxqFBKOQQP7SKCQYhQTyl0YhwSgkkL80CglGIYH8pVFIMAoJ5C+NQoJRSCB/aRQSjEIC+UujkGAUEshfGoUEo5BA/tIoJBiFBPKXRiHBKCSQvzQKCUYhgfylUUgwCgnkL41CglFIIH9pFBKMQgL5S6OQYBQSyF8ahQSjkED+0igkGIUE8pdGIcEoJJC/NAoJRiGB/KVRSDAKCeQvjUKCUUggf2kUEoxCAvlLo5BgFBLIXxqFBKOQQP7SKCQYhQTyl0YhwSgkkL80CglGIYH8pVFIMAoJ5C+NQoJRSCB/aRQSjEIC+UujkGAUEshfGoUEo5BA/tIoJBiFBPKXRiHBKCSQvzQKCUYhgfylUUgwCgnkL41CglFIIOeMQp4l54xCniXnjEKeJeeMQp4l54xCniXnjEKeJeeMQp4l54xCniXnjEKeJeeMQp4l54xCniXnjEKeJeeMQp4l54xCniXnjEKeJeeMQp4l54xCniXnjEKeJeeMQp4l54xCniXnjEKeJeeMQp4l54xCniXnjEKeJeeMQp4l54xCniXnjEKeJeeMQp4l54xCniXnjEKeJeeMQp4l54xCniXnjEKeJeeMQp4l54xCniXnjEKeJeeMQp4l54x3SSDnjHdJIOeMd0kg54x3SSDnjHdJIOeMd0kg54x3SSDnjHdJIOeMd0kg54x3SSDnjHdJIOeMd0kg54x3SSDnjHdJIOeMd0kg54x3SSDnjHdJIOeMd0kg54x3SSDnjHdJIOeMd0kg54x3SSDnjHdJIOeMd0kg54x3SSDnjHdJIOeMd0kg54x3SSDnjHdJIOeMd0kg54x3SSDnjHdJIOeMd0kg54x3SSDnjHdJIOeMd0kg54x3SSDnjHdJIJ9MPpl8Mvlk8snkk8knk08mn0w+mXwy+WTyyeSTySeTTyafTD6ZfDL5ZPLJ5JPJJ5NPJp9MPpl8Mvlk8snkk8knk08mn0w+mXwy+WTyyX5cIng8sBPaBgAAAABJRU5ErkJggg==;fontSize=48;" vertex="1" parent="1">
          <mxGeometry x="1500" y="1500" width="300" height="300" as="geometry" />
        </mxCell>
        <mxCell id="6RiR2EWWeTwOWJ7hItFx-12" value="&lt;font style=&quot;font-size: 48px;&quot;&gt;ID=7&amp;nbsp; &amp;nbsp;(3,3)&lt;/font&gt;" style="text;html=1;align=center;verticalAlign=middle;resizable=0;points=[];autosize=1;strokeColor=none;fillColor=none;fontSize=48;" vertex="1" parent="1">
          <mxGeometry x="1520" y="1795" width="260" height="70" as="geometry" />
        </mxCell>
        <mxCell id="6RiR2EWWeTwOWJ7hItFx-13" value="" style="shape=image;imageAspect=0;aspect=fixed;verticalLabelPosition=bottom;verticalAlign=top;image=data:image/png,iVBORw0KGgoAAAANSUhEUgAAASwAAAEsCAAAAABcFtGpAAAFcElEQVR4Ae3BwQ3AQAzDMGn/od0V/AiCKxBSTk1OTU5NTk1OTU5NTk1OTU5NTk1OTU5NTk1OTU5NTk1OTU5NTk1OTU5NTk1OTU5NTk1OTU5NTk1OTU5NTk1OTU5NTk1OTU5NTk1OTU5NTk1OTU5NTk1OTU5NTk1OTU5NTk1OTU5NTk1OTU5NTk1OTU5NTk1OTU5NTk1OTU5NTk1OTU5NTk1OTU5NTk1OTU5NTk1OTU5NtoWCvEi2hYK8SLaFgrxItoWCvEi2hYK8SLaFgrxItoWCvEi2hYK8SLaFgrxItoWCvEi2hYK8SLaFgrxItoWCvEi2hYK8SLaFgrxItoWCvEi2hYK8SLaFgrxItoWCvEi2hYK8SLaFgrxItoWCvEi2hYK8SLaFgrxItoWCvEi2hYK8SLaFgrxItoWCvEi2hYK8SLaFgrxItoWCvEi2hYK8SLaFgrxItoWCvEi2hYK8SLaFgrxItoWCvEi2hYK8SCrhRbJLKuFFsksq4UWySyrhRbJLKuFFsksq4UWySyrhRbJLKuFFsksq4UWySyrhRbJLKuFFsksq4UWySyrhRbJLKuFFsksq4UWySyrhRbJLKuFFsksq4UWySyrhRbJLKuFFsksq4UWySyrhRbJLKuFFsksq4UWySyrhRbJLKuFFsksq4UWySyrhRbJLKuFFsksq4UWySyrhRbJLKuFFsksq4UWySyrhRbJLKuFFsksq4UWySyrhRbJLKmGMFEJDdkkljJFCaMguqYQxUggN2SWVMEYKoSG7pBLGSCE0ZJdUwhgphIbskkoYI4XQkF1SCWOkEBqySyphjBRCQ3ZJJYyRQmjILqmEMVIIDdkllTBGCqEhu6QSxkghNGSXVMIYKYSG7JJKGCOF0JBdUgljpBAasksqYYwUQkN2SSWMkUJoyC6phDFSCA3ZJZUwRgqhIbukEsZIITRkl1TCGCmEhuySShgjhdCQXVIJY6QQGrJLKmGMFEJDdkkljJFCaMguqYQxUggN2SWVMEYKoSG7pBLGSCE0ZJdUwhgphIbskkoYI4XQkF1SCWOkEBqySyphjBRCQ3ZJJYyRQmjILqmEMVIIDdkllTBGCqEhu6QSxkghNGSXVMIYKYSG7JI5oSGF0JBdMic0pBAaskvmhIYUQkN2yZzQkEJoyC6ZExpSCA3ZJXNCQwqhIbtkTmhIITRkl8wJDSmEhuySOaEhhdCQXTInNKQQGrJL5oSGFEJDdsmc0JBCaMgumRMaUggN2SVzQkMKoSG7ZE5oSCE0ZJfMCQ0phIbskjmhIYXQkF0yJzSkEBqyS+aEhhRCQ3bJnNCQQmjILpkTGlIIDdklc0JDCqEhu2ROaEghNGSXzAkNKYSG7JI5oSGF0JBdMic0pBAaskvmhIYUQkN2yZzQkEJoyC6ZExpSCA3ZJXNCQwqhIbtkTmhIITRkl8wJDSmEhuySOaEhhdCQXTInNKQQGrJL5oSGFEJDdsmc0JBCaMgumRMaUggN2SU/FsZIQX4sjJGC/FgYIwX5sTBGCvJjYYwU5MfCGCnIj4UxUpAfC2OkID8WxkhBfiyMkYL8WBgjBfmxMEYK8mNhjBTkx8IYKciPhTFSkB8LY6QgPxbGSEF+LIyRgvxYGCMF+bEwRgryY2GMFOTHwhgpyI+FMVKQHwtjpCA/FsZIQX4sjJGC/FgYIwX5sTBGCvJjYYwU5MfCGCnIj4UxUpAfC2OkID8WxkhBfiyMkYL8WBgjBfmxMEYK8mNhjBTkx8IYKcipyanJqcmpyanJqcmpyanJqcmpyanJqcmpyanJqcmpyanJqcmpyanJqcmpyanJqcmpyanJqcmpyanJqcmpyanJqcmpyanJqcmpfTtwCDxK2yAHAAAAAElFTkSuQmCC;fontSize=48;" vertex="1" parent="1">
          <mxGeometry x="2000" width="300" height="300" as="geometry" />
        </mxCell>
        <mxCell id="6RiR2EWWeTwOWJ7hItFx-14" value="&lt;font style=&quot;font-size: 48px;&quot;&gt;ID=8&amp;nbsp; &amp;nbsp;(4,0)&lt;/font&gt;" style="text;html=1;align=center;verticalAlign=middle;resizable=0;points=[];autosize=1;strokeColor=none;fillColor=none;fontSize=48;" vertex="1" parent="1">
          <mxGeometry x="2020" y="295" width="260" height="70" as="geometry" />
        </mxCell>
        <mxCell id="6RiR2EWWeTwOWJ7hItFx-15" value="" style="shape=image;imageAspect=0;aspect=fixed;verticalLabelPosition=bottom;verticalAlign=top;image=data:image/png,iVBORw0KGgoAAAANSUhEUgAAASwAAAEsCAAAAABcFtGpAAAHNElEQVR4Ae3BMRHAQBDEMJs/6A0FFzdfRZJfJr9Mfpn8Mvll8svkl8kvk18mv0x+mfwy+WXyy+SXyS+TXya/TH6Z/DL5ZfLL5JfJL5NfJr9Mfpn8Mvll8svkl8kvk18mv0x+mfwy+WXyyyQZgTw2zkggyQjksXFGAklGII+NMxJIMgJ5bJyRQJIRyGPjjASSjEAeG2ckkGQE8tg4I4EkI5DHxhkJJBmBPDbOSCDJCOSxcUYCSUYgj40zEkgyAnlsnJFAkhHIY+OMBJKMQB4bZySQZATy2DgjgSQjkMfGGQkkGYE8Ns5IIMkI5LFxRgJJRiCPjTMSSDICeWyckUCSEchj44wEkoxAHhtnJJBkBPLYOCOBJCOQx8YZCSQZgTw2zkggyQjksXFGAklGII+NMxJIMgJ5bJyRQJIRyGPjjASSjEAeG2ckkGQE8tg4I4EkI5DHxhkJJBmBPDbOSCDJCOSxcUYCSUYgj40zEkgyAnlsnJFAkhHIY+OMBJKMQIoRSDECOSPJCKQYgRQjkDOSjECKEUgxAjkjyQikGIEUI5AzkoxAihFIMQI5I8kIpBiBFCOQM5KMQIoRSDECOSPJCKQYgRQjkDOSjECKEUgxAjkjyQikGIEUI5AzkoxAihFIMQI5I8kIpBiBFCOQM5KMQIoRSDECOSPJCKQYgRQjkDOSjECKEUgxAjkjyQikGIEUI5AzkoxAihFIMQI5I8kIpBiBFCOQM5KMQIoRSDECOSPJCKQYgRQjkDOSjECKEUgxAjkjyQikGIEUI5AzkoxAihFIMQI5I8kIpBiBFCOQM5KMQIoRSDECOSPJCKQYgRQjkDOSjECKEUgxAjkjyQikGIEUI5AzkoxAihFIMQI5I8kIpBiBFCOQM5KMQIoRSDECOSPJCKQYgRQjkDOSjECKEUgxAjkjyQikGIEUI5AzkoxAihFIMQI5I8kIpBiBFCOQM5KMQIoRSDECOSPJCKQYgRQjkDNyZxTy1igkkDujkLdGIYHcGYW8NQoJ5M4o5K1RSCB3RiFvjUICuTMKeWsUEsidUchbo5BA7oxC3hqFBHJnFPLWKCSQO6OQt0YhgdwZhbw1CgnkzijkrVFIIHdGIW+NQgK5Mwp5axQSyJ1RyFujkEDujELeGoUEcmcU8tYoJJA7o5C3RiGB3BmFvDUKCeTOKOStUUggd0Yhb41CArkzCnlrFBLInVHIW6OQQO6MQt4ahQRyZxTy1igkkDujkLdGIYHcGYW8NQoJ5M4o5K1RSCB3RiFvjUICuTMKeWsUEsidUchbo5BA7oxC3hqFBHJnFPLWKCSQO6OQt0YhgdwZhbw1CgnkzijkrVFIIHdGIW+NQgJJRiCPjUDOSDICeWwEckaSEchjI5AzkoxAHhuBnJFkBPLYCOSMJCOQx0YgZyQZgTw2AjkjyQjksRHIGUlGII+NQM5IMgJ5bARyRpIRyGMjkDOSjEAeG4GckWQE8tgI5IwkI5DHRiBnJBmBPDYCOSPJCOSxEcgZSUYgj41AzkgyAnlsBHJGkhHIYyOQM5KMQB4bgZyRZATy2AjkjCQjkMdGIGckGYE8NgI5I8kI5LERyBlJRiCPjUDOSDICeWwEckaSEchjI5AzkoxAHhuBnJFkBPLYCOSMJCOQx0YgZyQZgTw2AjkjyQjksRHIGUlGII+NQM5IMgJ5bARyRpIRyGMjkDOSjEAeG4GckWQE8tgI5IwkI5DHRiBnJBlvSTHOSCDJeEuKcUYCScZbUowzEkgy3pJinJFAkvGWFOOMBJKMt6QYZySQZLwlxTgjgSTjLSnGGQkkGW9JMc5IIMl4S4pxRgJJxltSjDMSSDLekmKckUCS8ZYU44wEkoy3pBhnJJBkvCXFOCOBJOMtKcYZCSQZb0kxzkggyXhLinFGAknGW1KMMxJIMt6SYpyRQJLxlhTjjASSjLekGGckkGS8JcU4I4Ek4y0pxhkJJBlvSTHOSCDJeEuKcUYCScZbUowzEkgy3pJinJFAkvGWFOOMBJKMt6QYZySQZLwlxTgjgSTjLSnGGQkkGW9JMc5IIMl4S4pxRgJJxltSjDMSSDLekmKckUCS8ZYU44wE8tp4S87Ia+MtOSOvjbfkjLw23pIz8tp4S87Ia+MtOSOvjbfkjLw23pIz8tp4S87Ia+MtOSOvjbfkjLw23pIz8tp4S87Ia+MtOSOvjbfkjLw23pIz8tp4S87Ia+MtOSOvjbfkjLw23pIz8tp4S87Ia+MtOSOvjbfkjLw23pIz8tp4S87Ia+MtOSOvjbfkjLw23pIz8tp4S87Ia+MtOSOvjbfkjLw23pIz8tp4S87Ia+MtOSOvjbfkjLw23pIz8tp4S87Ia+MtOSO/TH6Z/DL5ZfLL5JfJL5NfJr9Mfpn8Mvll8svkl8kvk18mv0x+mfwy+WXyy+SXyS+TXya/TH6Z/DL5ZfLL5JfJL5NfJr9Mfpn8Mvll8ss+KvXDPCvfvmMAAAAASUVORK5CYII=;fontSize=48;" vertex="1" parent="1">
          <mxGeometry x="2000" y="2000" width="300" height="300" as="geometry" />
        </mxCell>
        <mxCell id="6RiR2EWWeTwOWJ7hItFx-16" value="&lt;font style=&quot;font-size: 48px;&quot;&gt;ID=9&amp;nbsp; &amp;nbsp;(4,4)&lt;/font&gt;" style="text;html=1;align=center;verticalAlign=middle;resizable=0;points=[];autosize=1;strokeColor=none;fillColor=none;fontSize=48;" vertex="1" parent="1">
          <mxGeometry x="2020" y="2295" width="260" height="70" as="geometry" />
        </mxCell>
        <mxCell id="6RiR2EWWeTwOWJ7hItFx-17" value="" style="shape=image;imageAspect=0;aspect=fixed;verticalLabelPosition=bottom;verticalAlign=top;image=data:image/png,iVBORw0KGgoAAAANSUhEUgAAASwAAAEsCAAAAABcFtGpAAAHMUlEQVR4Ae3BwQkDQRDEQCn/oNsp6DEsGK5KPpl8Mvlk8snkk8knk08mn0w+mXwy+WTyyeSTySeTTyafTD6ZfDL5ZPLJ5JPJJ5NPJp9MPpl8Mvlk8snkk8knk08mn0w+mXwy+WTyyeSTySeTZLwlxQjkjCTjLSlGIGckGW9JMQI5I8l4S4oRyBlJxltSjEDOSDLekmIEckaS8ZYUI5Azkoy3pBiBnJFkvCXFCOSMJOMtKUYgZyQZb0kxAjkjyXhLihHIGUnGW1KMQM5IMt6SYgRyRpLxlhQjkDOSjLekGIGckWS8JcUI5Iwk4y0pRiBnJBlvSTECOSPJeEuKEcgZScZbUoxAzkgy3pJiBHJGkvGWFCOQM5KMt6QYgZyRZLwlxQjkjCTjLSlGIGckGW9JMQI5I8l4S4oRyBlJxltSjEDOSDLekmIEckaS8ZYUI5Azkoy3pBiBnJFkvCXFCOSMJOMtKUYgZyQZb0kxAjkjyXhLihHIGUnGW1KMQM5IMgIpxhl5S5IRSDHOyFuSjECKcUbekmQEUowz8pYkI5BinJG3JBmBFOOMvCXJCKQYZ+QtSUYgxTgjb0kyAinGGXlLkhFIMc7IW5KMQIpxRt6SZARSjDPyliQjkGKckbckGYEU44y8JckIpBhn5C1JRiDFOCNvSTICKcYZeUuSEUgxzshbkoxAinFG3pJkBFKMM/KWJCOQYpyRtyQZgRTjjLwlyQikGGfkLUlGIMU4I29JMgIpxhl5S5IRSDHOyFuSjECKcUbekmQEUowz8pYkI5BinJG3JBmBFOOMvCXJCKQYZ+QtSUYgxTgjb0kyAinGGXlLkhFIMc7IW5KMQIpxRt6SZARSjDPyliQjkGKckbckGYEU44y8Ja+NQIoRyBl5bQRSjEDOyGsjkGIEckZeG4EUI5Az8toIpBiBnJHXRiDFCOSMvDYCKUYgZ+S1EUgxAjkjr41AihHIGXltBFKMQM7IayOQYgRyRl4bgRQjkDPy2gikGIGckddGIMUI5Iy8NgIpRiBn5LURSDECOSOvjUCKEcgZeW0EUoxAzshrI5BiBHJGXhuBFCOQM/LaCKQYgZyR10YgxQjkjLw2AilGIGfktRFIMQI5I6+NQIoRyBl5bQRSjEDOyGsjkGIEckZeG4EUI5Az8toIpBiBnJHXRiDFCOSMvDYCKUYgZ+S1EUgxAjkjr41AihHIGXltBFKMQM7IayOQYgRyRl4bgRQjkDPy2gikGIGckWT8LTkjyfhbckaS8bfkjCTjb8kZScbfkjOSjL8lZyQZf0vOSDL+lpyRZPwtOSPJ+FtyRpLxt+SMJONvyRlJxt+SM5KMvyVnJBl/S85IMv6WnJFk/C05I8n4W3JGkvG35Iwk42/JGUnG35Izkoy/JWckGX9Lzkgy/packWT8LTkjyfhbckaS8bfkjCTjb8kZScbfkjOSjL8lZyQZf0vOSDL+lpyRZPwtOSPJ+FtyRpLxt+SMJONvyRlJxt+SM5KMvyVn5M54TIJRSCB3xmMSjEICuTMek2AUEsid8ZgEo5BA7ozHJBiFBHJnPCbBKCSQO+MxCUYhgdwZj0kwCgnkznhMglFIIHfGYxKMQgK5Mx6TYBQSyJ3xmASjkEDujMckGIUEcmc8JsEoJJA74zEJRiGB3BmPSTAKCeTOeEyCUUggd8ZjEoxCArkzHpNgFBLInfGYBKOQQO6MxyQYhQRyZzwmwSgkkDvjMQlGIYHcGY9JMAoJ5M54TIJRSCB3xmMSjEICuTMek2AUEsid8ZgEo5BA7ozHJBiFBHJnPCbBKCSQO+MxCUYhgdwZj0kwCgnkznhMglFIIHfGYxKMQgK5Mx6TYBQSyJ3xmASjkEDujMckGIUEkoxAinFGglFIIMkIpBhnJBiFBJKMQIpxRoJRSCDJCKQYZyQYhQSSjECKcUaCUUggyQikGGckGIUEkoxAinFGglFIIMkIpBhnJBiFBJKMQIpxRoJRSCDJCKQYZyQYhQSSjECKcUaCUUggyQikGGckGIUEkoxAinFGglFIIMkIpBhnJBiFBJKMQIpxRoJRSCDJCKQYZyQYhQSSjECKcUaCUUggyQikGGckGIUEkoxAinFGglFIIMkIpBhnJBiFBJKMQIpxRoJRSCDJCKQYZyQYhQSSjECKcUaCUUggyQikGGckGIUEkoxAinFGglFIIMkIpBhnJBiFBJKMQIpxRoJRSCDJCKQYZyQYhQSSjECKcUaCUUggyQikGGckGIUEkoxAinFGglFIIMkIpBhnJBiFBJKMQIpxRoJRSCDJCKQYZyQYhQSSjECKcUaCUUggyQikGGckGIUEkoxAinFGglFIIMkIpBhnJBiFBPLJ5JPJJ5NPJp9MPpl8Mvlk8snkk8knk08mn0w+mXwy+WTyyeSTySeTTyafTD6ZfDL5ZPLJ5JPJJ5NPJp9MPpl8Mvlk8snkk8knk08mn+wHyKzDPKTA/pAAAAAASUVORK5CYII=;fontSize=48;" vertex="1" parent="1">
          <mxGeometry y="2000" width="300" height="300" as="geometry" />
        </mxCell>
        <mxCell id="6RiR2EWWeTwOWJ7hItFx-18" value="&lt;font style=&quot;font-size: 48px;&quot;&gt;ID=10&amp;nbsp; &amp;nbsp;(0,4)&lt;/font&gt;" style="text;html=1;align=center;verticalAlign=middle;resizable=0;points=[];autosize=1;strokeColor=none;fillColor=none;fontSize=48;" vertex="1" parent="1">
          <mxGeometry x="5" y="2295" width="290" height="70" as="geometry" />
        </mxCell>
        <mxCell id="6RiR2EWWeTwOWJ7hItFx-19" value="" style="shape=image;imageAspect=0;aspect=fixed;verticalLabelPosition=bottom;verticalAlign=top;image=data:image/png,iVBORw0KGgoAAAANSUhEUgAAASwAAAEsCAAAAABcFtGpAAAGmElEQVR4Ae3BsQ0DQRDEMKn/osctKFgYFzwpn0w+mXwy+WTyyeSTySeTTyafTD6ZfDL5ZPLJ5JPJJ5NPJp9MPpl8Mvlk8snkk8knk08mn0w+mXwy+WTyyeSTySeTTyafTD6ZfDL5ZPLJ5JPJk8YZOSNPGmfkjDxpnJEz8qRxRs7Ik8YZOSNPGmfkjDxpnJEz8qRxRs7Ik8YZOSNPGmfkjDxpnJEz8qRxRs7Ik8YZOSNPGmfkjDxpnJEz8qRxRs7Ik8YZOSNPGmfkjDxpnJEz8qRxRs7Ik8YZOSNPGmfkjDxpnJEz8qRxRs7Ik8YZOSNPGmfkjDxpnJEz8qRxRs7Ik8YZOSNPGmfkjDxpnJEz8qRxRs7Ik8YZOSNPGmfkjDxpnJEz8qRxRs7Ik8YZOSPJCKQYL5JAkhFIMV4kgSQjkGK8SAJJRiDFeJEEkoxAivEiCSQZgRTjRRJIMgIpxoskkGQEUowXSSDJCKQYL5JAkhFIMV4kgSQjkGK8SAJJRiDFeJEEkoxAivEiCSQZgRTjRRJIMgIpxoskkGQEUowXSSDJCKQYL5JAkhFIMV4kgSQjkGK8SAJJRiDFeJEEkoxAivEiCSQZgRTjRRJIMgIpxoskkGQEUowXSSDJCKQYL5JAkhFIMV4kgSQjkGK8SAJJRiDFeJEEkoxAivEiCSQZgRTjRRJIMgIpxoskkGQEUowXSSDJCKQYL5JAkhFIMV4kgSQjkGK8SAJJRiDFeJEEkoxAivEiCSQZgRTjRRLInXFGXiR3xhl5kdwZZ+RFcmeckRfJnXFGXiR3xhl5kdwZZ+RFcmeckRfJnXFGXiR3xhl5kdwZZ+RFcmeckRfJnXFGXiR3xhl5kdwZZ+RFcmeckRfJnXFGXiR3xhl5kdwZZ+RFcmeckRfJnXFGXiR3xhl5kdwZZ+RFcmeckRfJnXFGXiR3xhl5kdwZZ+RFcmeckRfJnXFGXiR3xhl5kdwZZ+RFcmeckRfJnXFGXiR3xhl5kdwZZ+RFcmeckRfJnXFGXiR3RiHBKCQYhQRyZxQSjEKCUUggd0YhwSgkGIUEcmcUEoxCglFIIHdGIcEoJBiFBHJnFBKMQoJRSCB3RiHBKCQYhQRyZxQSjEKCUUggd0YhwSgkGIUEcmcUEoxCglFIIHdGIcEoJBiFBHJnFBKMQoJRSCB3RiHBKCQYhQRyZxQSjEKCUUggd0YhwSgkGIUEcmcUEoxCglFIIHdGIcEoJBiFBHJnFBKMQoJRSCB3RiHBKCQYhQRyZxQSjEKCUUggd0YhwSgkGIUEcmcUEoxCglFIIHdGIcEoJBiFBHJnFBKMQoJRSCB3RiHBKCQYhQRyZxQSjEKCUUggd0YhwSgkGIUEcmcUEoxCglFIIHdGIcEoJBiFBHJnFBKMQoJRSCB3RiHBKCQYhQRyZxQSjEKCUUggd0YhwSgkGIUEcmcUEoxCglFIIHdGIcEoJBiFBHJnFBKMQoJRSCB3RiHBKCQYhQRyZxQSjEKCUUggyTgj/zUKCSQZZ+S/RiGBJOOM/NcoJJBknJH/GoUEkowz8l+jkECScUb+axQSSDLOyH+NQgJJxhn5r1FIIMk4I/81CgkkGWfkv0YhgSTjjPzXKCSQZJyR/xqFBJKMM/Jfo5BAknFG/msUEkgyzsh/jUICScYZ+a9RSCDJOCP/NQoJJBln5L9GIYEk44z81ygkkGSckf8ahQSSjDPyX6OQQJJxRv5rFBJIMs7If41CAknGGfmvUUggyTgj/zUKCSQZZ+S/RiGBJOOM/NcoJJBknJH/GoUEkowz8l+jkECScUb+axQSSDLOyH+NQgJJxhn5r1FIIMk4I/81CgkkGWfkv0YhgSTjjPzXKCSQZJyR/xqFBJKMM/Jfo5BAnjQK+S950ijkv+RJo5D/kieNQv5LnjQK+S950ijkv+RJo5D/kieNQv5LnjQK+S950ijkv+RJo5D/kieNQv5LnjQK+S950ijkv+RJo5D/kieNQv5LnjQK+S950ijkv+RJo5D/kieNQv5LnjQK+S950ijkv+RJo5D/kieNQv5LnjQK+S950ijkv+RJo5D/kieNQv5LnjQK+S950ijkv+RJo5D/kieNQv5LnjQK+S950ijkv+RJo5D/kieNQv5LnjQK+S950ijkv+STySeTTyafTD6ZfDL5ZPLJ5JPJJ5NPJp9MPpl8Mvlk8snkk8knk08mn0w+mXwy+WTyyeSTySeTTyafTD6ZfDL5ZPLJ5JPJJ5NPJp9MPtkP2hl5PNXniVMAAAAASUVORK5CYII=;fontSize=48;" vertex="1" parent="1">
          <mxGeometry x="3500" width="300" height="300" as="geometry" />
        </mxCell>
        <mxCell id="6RiR2EWWeTwOWJ7hItFx-20" value="&lt;font style=&quot;font-size: 48px;&quot;&gt;ID=11&amp;nbsp; &amp;nbsp;(7,0)&lt;/font&gt;" style="text;html=1;align=center;verticalAlign=middle;resizable=0;points=[];autosize=1;strokeColor=none;fillColor=none;fontSize=48;" vertex="1" parent="1">
          <mxGeometry x="3505" y="295" width="290" height="70" as="geometry" />
        </mxCell>
        <mxCell id="6RiR2EWWeTwOWJ7hItFx-21" value="" style="shape=image;imageAspect=0;aspect=fixed;verticalLabelPosition=bottom;verticalAlign=top;image=data:image/png,iVBORw0KGgoAAAANSUhEUgAAASwAAAEsCAAAAABcFtGpAAAHM0lEQVR4Ae3BsQ3AMADDMOn/o90XNARBhpLyy+SXyS+TXya/TH6Z/DL5ZfLL5JfJL5NfJr9Mfpn8Mvll8svkl8kvk18mv0x+mfwy+WXyy+SXyS+TXya/TH6Z/DL5ZfLL5JfJL5NfJr9MfpkkI5BiHCPBKCSQZARSjGMkGIUEkoxAinGMBKOQQJIRSDGOkWAUEkgyAinGMRKMQgJJRiDFOEaCUUggyQikGMdIMAoJJBmBFOMYCUYhgSQjkGIcI8EoJJBkBFKMYyQYhQSSjECKcYwEo5BAkhFIMY6RYBQSSDICKcYxEoxCAklGIMU4RoJRSCDJCKQYx0gwCgkkGYEU4xgJRiGBJCOQYhwjwSgkkGQEUoxjJBiFBJKMQIpxjASjkECSEUgxjpFgFBJIMgIpxjESjEICSUYgxThGglFIIMkIpBjHSDAKCSQZgRTjGAlGIYEkI5BiHCPBKCSQZARSjGMkGIUEkoxAinGMBKOQQJIRSDGOkWAUEkgyAinGMRKMQgJJRiDFOEaCUUggyQikGMdIMAoJJBmBFOMYCUYhgSQjkGIcI8EoJJBkBFKMYyQYhQSSjECKcYwEo5BAkhFIMY6RYBQSSDICKcYxEoxCArltBPIiuW0E8iK5bQTyIrltBPIiuW0E8iK5bQTyIrltBPIiuW0E8iK5bQTyIrltBPIiuW0E8iK5bQTyIrltBPIiuW0E8iK5bQTyIrltBPIiuW0E8iK5bQTyIrltBPIiuW0E8iK5bQTyIrltBPIiuW0E8iK5bQTyIrltBPIiuW0E8iK5bQTyIrltBPIiuW0E8iK5bQTyIrltBPIiuW0E8iK5bQTyIrltBPIiuW0E8iK5bQTyIrltBPIiuW0E8iJJRiDFCOSYUUggyQikGIEcMwoJJBmBFCOQY0YhgSQjkGIEcswoJJBkBFKMQI4ZhQSSjECKEcgxo5BAkhFIMQI5ZhQSSDICKUYgx4xCAklGIMUI5JhRSCDJCKQYgRwzCgkkGYEUI5BjRiGBJCOQYgRyzCgkkGQEUoxAjhmFBJKMQIoRyDGjkECSEUgxAjlmFBJIMgIpRiDHjEICSUYgxQjkmFFIIMkIpBiBHDMKCSQZgRQjkGNGIYEkI5BiBHLMKCSQZARSjECOGYUEkoxAihHIMaOQQJIRSDECOWYUEkgyAilGIMeMQgJJRiDFCOSYUUggyQikGIEcMwoJJBmBFCOQY0YhgSQjkGIEcswoJJBkBFKMQI4ZhQSSjECKEcgxo5BAkhFIMQI5ZhQSSDICKUYgx4xCAklGIMUI5JhRSCDJCKQYgRwzCgkkGYEUI5BjRiGBJCOQYgRyzCgkkGQEUoxAjhmFBHLbCOSYUUggt41AjhmFBHLbCOSYUUggt41AjhmFBHLbCOSYUUggt41AjhmFBHLbCOSYUUggt41AjhmFBHLbCOSYUUggt41AjhmFBHLbCOSYUUggt41AjhmFBHLbCOSYUUggt41AjhmFBHLbCOSYUUggt41AjhmFBHLbCOSYUUggt41AjhmFBHLbCOSYUUggt41AjhmFBHLbCOSYUUggt41AjhmFBHLbCOSYUUggt41AjhmFBHLbCOSYUUggt41AjhmFBHLbCOSYUUggt41AjhmFBHLbCOSYUUggt41AjhmFBHLbCOSYUUggt41AjhmFBHLbCOSYUUggt41AjhmFBHLbCOSYUUggt41AjhmFBHLbCOSYUUggt41AjhmFBJKMF8ldkowXyV2SjBfJXZKMF8ldkowXyV2SjBfJXZKMF8ldkowXyV2SjBfJXZKMF8ldkowXyV2SjBfJXZKMF8ldkowXyV2SjBfJXZKMF8ldkowXyV2SjBfJXZKMF8ldkowXyV2SjBfJXZKMF8ldkowXyV2SjBfJXZKMF8ldkowXyV2SjBfJXZKMF8ldkowXyV2SjBfJXZKMF8ldkowXyV2SjBfJXZKMF8ldkowXyV2SjBfJXZKMF8ldkoxAjhmXSSDJCOSYcZkEkoxAjhmXSSDJCOSYcZkEkoxAjhmXSSDJCOSYcZkEkoxAjhmXSSDJCOSYcZkEkoxAjhmXSSDJCOSYcZkEkoxAjhmXSSDJCOSYcZkEkoxAjhmXSSDJCOSYcZkEkoxAjhmXSSDJCOSYcZkEkoxAjhmXSSDJCOSYcZkEkoxAjhmXSSDJCOSYcZkEkoxAjhmXSSDJCOSYcZkEkoxAjhmXSSDJCOSYcZkEkoxAjhmXSSDJCOSYcZkEkoxAjhmXSSDJCOSYcZkEkoxAjhmXSSDJCOSYcZkEkoxAjhmXSSDJCOSYcZkEkoxAjhmXSSDJCOSYcZkEkoxAjhmXSSDJCOSYcZkEkoxAjhmXSSDJCOSYcZkE8svkl8kvk18mv0x+mfwy+WXyy+SXyS+TXya/TH6Z/DL5ZfLL5JfJL5NfJr9Mfpn8Mvll8svkl8kvk18mv0x+mfwy+WXyy+SXyS+TXya/7ANvocI8kfUIFAAAAABJRU5ErkJggg==;fontSize=48;" vertex="1" parent="1">
          <mxGeometry x="3500" y="3500" width="300" height="300" as="geometry" />
        </mxCell>
        <mxCell id="6RiR2EWWeTwOWJ7hItFx-22" value="&lt;font style=&quot;font-size: 48px;&quot;&gt;ID=12&amp;nbsp; &amp;nbsp;(7,7)&lt;/font&gt;" style="text;html=1;align=center;verticalAlign=middle;resizable=0;points=[];autosize=1;strokeColor=none;fillColor=none;fontSize=48;" vertex="1" parent="1">
          <mxGeometry x="3505" y="3795" width="290" height="70" as="geometry" />
        </mxCell>
        <mxCell id="6RiR2EWWeTwOWJ7hItFx-23" value="" style="shape=image;imageAspect=0;aspect=fixed;verticalLabelPosition=bottom;verticalAlign=top;image=data:image/png,iVBORw0KGgoAAAANSUhEUgAAASwAAAEsCAAAAABcFtGpAAAGlUlEQVR4Ae3BwW0EQRDEMCn/oMsp6NEYHIwl5ZPJJ5NPJp9MPpl8Mvlk8snkk8knk08mn0w+mXwy+WTyyeSTySeTTyafTD6ZfDL5ZPLJ5JPJJ5NPJp9MPpl8Mvlk8snkk8knk08mn0w+mXwyeW0EUowzEshrI5BinJFAXhuBFOOMBPLaCKQYZySQ10YgxTgjgbw2AinGGQnktRFIMc5IIK+NQIpxRgJ5bQRSjDMSyGsjkGKckUBeG4EU44wE8toIpBhnJJDXRiDFOCOBvDYCKcYZCeS1EUgxzkggr41AinFGAnltBFKMMxLIayOQYpyRQF4bgRTjjATy2gikGGckkNdGIMU4I4G8NgIpxhkJ5LURSDHOSCCvjUCKcUYCeW0EUowzEshrI5BinJFAXhuBFOOMBPLaCKQYZySQ10YgxTgjgbw2AinGGQnktRFIMc5IIK+NQIpxRgJ5bQRSjDMSyGsjkGKckUBeG4EU44wE8toIpBhnJJDXRiDFOCOBJCOQM6OQtyQZgZwZhbwlyQjkzCjkLUlGIGdGIW9JMgI5Mwp5S5IRyJlRyFuSjEDOjELekmQEcmYU8pYkI5Azo5C3JBmBnBmFvCXJCOTMKOQtSUYgZ0Yhb0kyAjkzCnlLkhHImVHIW5KMQM6MQt6SZARyZhTyliQjkDOjkLckGYGcGYW8JckI5Mwo5C1JRiBnRiFvSTICOTMKeUuSEciZUchbkoxAzoxC3pJkBHJmFPKWJCOQM6OQtyQZgZwZhbwlyQjkzCjkLUlGIGdGIW9JMgI5Mwp5S5IRyJlRyFuSjEDOjELekmQEcmYU8pYkI5Azo5C3JBmBnBmFvCXJCOTMKOQtSUYgZ0Yhb0kyAjkzCnlLkhHImVHIW5KMt+QXSTLekl8kyXhLfpEk4y35RZKMt+QXSTLekl8kyXhLfpEk4y35RZKMt+QXSTLekl8kyXhLfpEk4y35RZKMt+QXSTLekl8kyXhLfpEk4y35RZKMt+QXSTLekl8kyXhLfpEk4y35RZKMt+QXSTLekl8kyXhLfpEk4y35RZKMt+QXSTLekl8kyXhLfpEk4y35RZKMt+QXSTLekl8kyXhLfpEk4y35RZKMt+QXSTLekl8kyXhLfpEk4y35RZKMt+QXyZ1RyJkRyBm5Mwo5MwI5I3dGIWdGIGfkzijkzAjkjNwZhZwZgZyRO6OQMyOQM3JnFHJmBHJG7oxCzoxAzsidUciZEcgZuTMKOTMCOSN3RiFnRiBn5M4o5MwI5IzcGYWcGYGckTujkDMjkDNyZxRyZgRyRu6MQs6MQM7InVHImRHIGbkzCjkzAjkjd0YhZ0YgZ+TOKOTMCOSM3BmFnBmBnJE7o5AzI5AzcmcUcmYEckbujELOjEDOyJ1RyJkRyBm5Mwo5MwI5I3dGIWdGIGfkzijkzAjkjNwZhZwZgZyRO6OQMyOQM3JnFHJmBHJG7oxCzoxAzsidUciZEcgZuTMKOTMCOSN3RiFnRiBn5M4o5MwI5IzcGYWcGYGckTujkDMjkDOSjED+OUlGIP+cJCOQf06SEcg/J8kI5J+TZATyz0kyAvnnJBmB/HOSjED+OUlGIP+cJCOQf06SEcg/J8kI5J+TZATyz0kyAvnnJBmB/HOSjED+OUlGIP+cJCOQf06SEcg/J8kI5J+TZATyz0kyAvnnJBmB/HOSjED+OUlGIP+cJCOQf06SEcg/J8kI5J+TZATyz0kyAvnnJBmB/HOSjED+OUlGIP+cJCOQf06SEcg/J8kI5J+TZLwlxTgjgSTjLSnGGQkkGW9JMc5IIMl4S4pxRgJJxltSjDMSSDLekmKckUCS8ZYU44wEkoy3pBhnJJBkvCXFOCOBJOMtKcYZCSQZb0kxzkggyXhLinFGAknGW1KMMxJIMt6SYpyRQJLxlhTjjASSjLekGGckkGS8JcU4I4Ek4y0pxhkJJBlvSTHOSCDJeEuKcUYCScZbUowzEkgy3pJinJFAkvGWFOOMBJKMt6QYZySQZLwlxTgjgSTjLSnGGQkkGW9JMc5IIMl4S4pxRgJJxltSjDMSSDLekmKckUCS8ZYU44wEkoy3pBhnJJBkvCXFOCOBJOMtKcYZCSQZb0kxzkggyXhLinFGAknGW1KMMxJIMt6SYpyRQD6ZfDL5ZPLJ5JPJJ5NPJp9MPpl8Mvlk8snkk8knk08mn0w+mXwy+WTyyeSTySeTTyafTD6ZfDL5ZPLJ5JPJJ5NPJp9MPpl8Mvlk8snkk/0BOVx5PBeIRdgAAAAASUVORK5CYII=;fontSize=48;" vertex="1" parent="1">
          <mxGeometry y="3500" width="300" height="300" as="geometry" />
        </mxCell>
        <mxCell id="6RiR2EWWeTwOWJ7hItFx-24" value="&lt;font style=&quot;font-size: 48px;&quot;&gt;ID=13&amp;nbsp; &amp;nbsp;(0,7)&lt;/font&gt;" style="text;html=1;align=center;verticalAlign=middle;resizable=0;points=[];autosize=1;strokeColor=none;fillColor=none;fontSize=48;" vertex="1" parent="1">
          <mxGeometry x="5" y="3795" width="290" height="70" as="geometry" />
        </mxCell>
        <mxCell id="6RiR2EWWeTwOWJ7hItFx-25" value="" style="shape=image;imageAspect=0;aspect=fixed;verticalLabelPosition=bottom;verticalAlign=top;image=data:image/png,iVBORw0KGgoAAAANSUhEUgAAASwAAAEsCAAAAABcFtGpAAAGSklEQVR4Ae3BwQnAMAADsbv9h3ZX8MOEFCLJU5OnJk9Nnpo8NXlq8tTkqclTk6cmT02emjw1eWry1OSpyVOTpyZPTZ6aPDV5avLU5KnJU5OnJk9Nnpo8NXlq8tTkqclTk6cmT02emjw1eWqyE24kM7ITbiQzshNuJDOyE24kM7ITbiQzshNuJDOyE24kM7ITbiQzshNuJDOyE24kM7ITbiQzshNuJDOyE24kM7ITbiQzshNuJDOyE24kM7ITbiQzshNuJDOyE24kM7ITbiQzshNuJDOyE24kM7ITbiQzshNuJDOyE24kM7ITbiQzshNuJDOyE24kM7ITbiQzshNuJDOyE24kM7ITbiQzshNuJDOyE24kM7ITbiQzshNuJDOyE24kM3JaKEgjzEhBTgsFaYQZKchpoSCNMCMFOS0UpBFmpCCnhYI0wowU5LRQkEaYkYKcFgrSCDNSkNNCQRphRgpyWihII8xIQU4LBWmEGSnIaaEgjTAjBTktFKQRZqQgp4WCNMKMFOS0UJBGmJGCnBYK0ggzUpDTQkEaYUYKclooSCPMSEFOCwVphBkpyGmhII0wIwU5LRSkEWakIKeFgjTCjBTktFCQRpiRgpwWCtIIM1KQ00JBGmFGCnJaKEgjzEhBTgsFaYQZKchpoSCNMCMFOS0UpBFmpCCnhYI0wowU5LRQkEaYkYKcFgrSCDNSkNNCQRphRgpyWihII8xIQU4LBWmEGSnIaaEgjTAjBTktFKQRZqQgp4WCNMKMFOS0UJBGmJGCXCkcJgW5UjhMCnKlcJgU5ErhMCnIlcJhUpArhcOkIFcKh0lBrhQOk4JcKRwmBblSOEwKcqVwmBTkSuEwKciVwmFSkCuFw6QgVwqHSUGuFA6TglwpHCYFuVI4TApypXCYFORK4TApyJXCYVKQK4XDpCBXCodJQa4UDpOCXCkcJgW5UjhMCnKlcJgU5ErhMCnIlcJhUpArhcOkIFcKh0lBrhQOk4JcKRwmBblSOEwKcqVwmBTkSuEwKciVwmFSkEqYkZlQkBmphBmZCQWZkUqYkZlQkBmphBmZCQWZkUqYkZlQkBmphBmZCQWZkUqYkZlQkBmphBmZCQWZkUqYkZlQkBmphBmZCQWZkUqYkZlQkBmphBmZCQWZkUqYkZlQkBmphBmZCQWZkUqYkZlQkBmphBmZCQWZkUqYkZlQkBmphBmZCQWZkUqYkZlQkBmphBmZCQWZkUqYkZlQkBmphBmZCQWZkUqYkZlQkBmphBmZCQWZkUqYkZlQkBmphBmZCQWZkUqYkZlQkBmphBmZCQWZkUqYkZlQkBmphBmZCQWZkUqYkZlQkBmphBmZCQWZkUqYkZlQkBmphBmZCQWZkUqYkZlQkBmphBmZCQWZkUqYkZlQkBmphBmZCQWZkUr4LZmRSvgtmZFK+C2ZkUr4LZmRSvgtmZFK+C2ZkUr4LZmRSvgtmZFK+C2ZkUr4LZmRSvgtmZFK+C2ZkUr4LZmRSvgtmZFK+C2ZkUr4LZmRSvgtmZFK+C2ZkUr4LZmRSvgtmZFK+C2ZkUr4LZmRSvgtmZFK+C2ZkUr4LZmRSvgtmZFK+C2ZkUr4LZmRSvgtmZFK+C2ZkUr4LZmRSvgtmZFK+C2ZkUr4LZmRSvgtmZFK+C2ZkUr4LZmRSihIIxTkRlIJBWmEgtxIKqEgjVCQG0klFKQRCnIjqYSCNEJBbiSVUJBGKMiNpBIK0ggFuZFUQkEaoSA3kkooSCMU5EZSCQVphILcSCqhII1QkBtJJRSkEQpyI6mEgjRCQW4klVCQRijIjaQSCtIIBbmRVEJBGqEgN5JKKEgjFORGUgkFaYSC3EgqoSCNUJAbSSUUpBEKciOphII0QkFuJJVQkEYoyI2kEgrSCAW5kVRCQRqhIDeSSihIIxTkRlIJBWmEgtxIKqEgjVCQG0klFKQRCnIjqYSCNEJBbiSVUJBGKMiNpBIK0ggFuZFUQkEaoSA3kkooSCMU5EZSCQVphILcSCqhII1QkBtJJRSkEQpyI6mEgjRCQW4klVCQRijIjeSpyVOTpyZPTZ6aPDV5avLU5KnJU5OnJk9Nnpo8NXlq8tTkqclTk6cmT02emjw1eWry1OSpyVOTpyZPTZ6aPDV5avLU5KnJU5OnJk9NntoHO65UPC+1sGYAAAAASUVORK5CYII=;fontSize=48;" vertex="1" parent="1">
          <mxGeometry x="5000" width="300" height="300" as="geometry" />
        </mxCell>
        <mxCell id="6RiR2EWWeTwOWJ7hItFx-26" value="&lt;font style=&quot;font-size: 48px;&quot;&gt;ID=14&amp;nbsp; &amp;nbsp;(10,0)&lt;/font&gt;" style="text;html=1;align=center;verticalAlign=middle;resizable=0;points=[];autosize=1;strokeColor=none;fillColor=none;fontSize=48;" vertex="1" parent="1">
          <mxGeometry x="4990" y="295" width="320" height="70" as="geometry" />
        </mxCell>
        <mxCell id="6RiR2EWWeTwOWJ7hItFx-27" value="" style="shape=image;imageAspect=0;aspect=fixed;verticalLabelPosition=bottom;verticalAlign=top;image=data:image/png,iVBORw0KGgoAAAANSUhEUgAAASwAAAEsCAAAAABcFtGpAAAG3klEQVR4Ae3BwQkEMQDEMLv/ouda8COEHKwkn0w+mXwy+WTyyeSTySeTTyafTD6ZfDL5ZPLJ5JPJJ5NPJp9MPpl8Mvlk8snkk8knk08mn0w+mXwy+WTyyeSTySeTTyafTD6ZfDL5ZPLJ5JPJbSOQY0Yhgdw2AjlmFBLIbSOQY0Yhgdw2AjlmFBLIbSOQY0Yhgdw2AjlmFBLIbSOQY0Yhgdw2AjlmFBLIbSOQY0Yhgdw2AjlmFBLIbSOQY0Yhgdw2AjlmFBLIbSOQY0Yhgdw2AjlmFBLIbSOQY0Yhgdw2AjlmFBLIbSOQY0Yhgdw2AjlmFBLIbSOQY0Yhgdw2AjlmFBLIbSOQY0Yhgdw2AjlmFBLIbSOQY0Yhgdw2AjlmFBLIbSOQY0Yhgdw2AjlmFBLIbSOQY0Yhgdw2AjlmFBLIbSOQY0Yhgdw2AjlmFBLIbSOQY0Yhgdw2AjlmFBLIbSOQY0Yhgdw2AjlmFBLIbSOQY0Yhgdw2AjlmFBLIbSOQY0YhgSTjRRKMQgJJxoskGIUEkowXSTAKCSQZL5JgFBJIMl4kwSgkkGS8SIJRSCDJeJEEo5BAkvEiCUYhgSTjRRKMQgJJxoskGIUEkowXSTAKCSQZL5JgFBJIMl4kwSgkkGS8SIJRSCDJeJEEo5BAkvEiCUYhgSTjRRKMQgJJxoskGIUEkowXSTAKCSQZL5JgFBJIMl4kwSgkkGS8SIJRSCDJeJEEo5BAkvEiCUYhgSTjRRKMQgJJxoskGIUEkowXSTAKCSQZL5JgFBJIMl4kwSgkkGS8SIJRSCDJeJEEo5BAkvEiCUYhgSTjRRKMQgJJxoskGIUEkowXSTAKCSQZL5JgFBJIMl4kwSgkkGS8SIJRSCC3jWMkGIUEcts4RoJRSCC3jWMkGIUEcts4RoJRSCC3jWMkGIUEcts4RoJRSCC3jWMkGIUEcts4RoJRSCC3jWMkGIUEcts4RoJRSCC3jWMkGIUEcts4RoJRSCC3jWMkGIUEcts4RoJRSCC3jWMkGIUEcts4RoJRSCC3jWMkGIUEcts4RoJRSCC3jWMkGIUEcts4RoJRSCC3jWMkGIUEcts4RoJRSCC3jWMkGIUEcts4RoJRSCC3jWMkGIUEcts4RoJRSCC3jWMkGIUEcts4RoJRSCC3jWMkGIUEcts4RoJRSCC3jWMkGIUEcts4RoJRSCC3jWMkGIUEcts4RoJRSCC3jWMkGIUEcts4RoJRSCC3jWMkGIUEctt4kQRy23iRBHLbeJEEctt4kQRy23iRBHLbeJEEctt4kQRy23iRBHLbeJEEctt4kQRy23iRBHLbeJEEctt4kQRy23iRBHLbeJEEctt4kQRy23iRBHLbeJEEctt4kQRy23iRBHLbeJEEctt4kQRy23iRBHLbeJEEctt4kQRy23iRBHLbeJEEctt4kQRy23iRBHLbeJEEctt4kQRy23iRBHLbeJEEctt4kQRy23iRBHLbeJEEctt4kQRy23iRBHLOKCQYhQSjkEDOGYUEo5BgFBLIOaOQYBQSjEICOWcUEoxCglFIIOeMQoJRSDAKCeScUUgwCglGIYGcMwoJRiHBKCSQc0YhwSgkGIUEcs4oJBiFBKOQQM4ZhQSjkGAUEsg5o5BgFBKMQgI5ZxQSjEKCUUgg54xCglFIMAoJ5JxRSDAKCUYhgZwzCglGIcEoJJBzRiHBKCQYhQRyzigkGIUEo5BAzhmFBKOQYBQSyDmjkGAUEoxCAjlnFBKMQoJRSCDnjEKCUUgwCgnknFFIMAoJRiGBnDMKCUYhwSgkkHNGIcEoJBiFBHLOKCQYhQSjkEDOGYUEo5BgFBLIOaOQYBQSjEICOWcUEoxCglFIIOeMQoJRSDAKCeScUUgwCglGIYGcMwoJRiHBKCSQc0YhwSgkGIUEcs4oJBiFBKOQQM4ZhQSjkGAUEsg5o5BgFBKMQgI5ZxQSjEKCUUgg54xCglFIMAoJJBl/S46RZPwtOUaS8bfkGEnG35JjJBl/S46RZPwtOUaS8bfkGEnG35JjJBl/S46RZPwtOUaS8bfkGEnG35JjJBl/S46RZPwtOUaS8bfkGEnG35JjJBl/S46RZPwtOUaS8bfkGEnG35JjJBl/S46RZPwtOUaS8bfkGEnG35JjJBl/S46RZPwtOUaS8bfkGEnG35JjJBl/S46RZPwtOUaS8bfkGEnG35JjJBl/S46RZPwtOUaS8bfkGEnG35JjJBl/S46RZPwtOUY+mXwy+WTyyeSTySeTTyafTD6ZfDL5ZPLJ5JPJJ5NPJp9MPpl8Mvlk8snkk8knk08mn0w+mXwy+WTyyeSTySeTTyafTD6ZfDL5ZPLJ5JP9AHhgnDyEzPiNAAAAAElFTkSuQmCC;fontSize=48;" vertex="1" parent="1">
          <mxGeometry x="5000" y="5000" width="300" height="300" as="geometry" />
        </mxCell>
        <mxCell id="6RiR2EWWeTwOWJ7hItFx-28" value="&lt;font style=&quot;font-size: 48px;&quot;&gt;ID=15&amp;nbsp; &amp;nbsp;(10,10)&lt;/font&gt;" style="text;html=1;align=center;verticalAlign=middle;resizable=0;points=[];autosize=1;strokeColor=none;fillColor=none;fontSize=48;" vertex="1" parent="1">
          <mxGeometry x="4975" y="5295" width="350" height="70" as="geometry" />
        </mxCell>
        <mxCell id="6RiR2EWWeTwOWJ7hItFx-29" value="" style="shape=image;imageAspect=0;aspect=fixed;verticalLabelPosition=bottom;verticalAlign=top;image=data:image/png,iVBORw0KGgoAAAANSUhEUgAAASwAAAEsCAAAAABcFtGpAAAGlElEQVR4Ae3BwQnEABDEMLv/ouda8GMJ4Ygkn0w+mXwy+WTyyeSTySeTTyafTD6ZfDL5ZPLJ5JPJJ5NPJp9MPpl8Mvlk8snkk8knk08mn0w+mXwy+WTyyeSTySeTTyafTD6ZfDL5ZPLJ5JNJMgJ52AjkjCQjkIeNQM5IMgJ52AjkjCQjkIeNQM5IMgJ52AjkjCQjkIeNQM5IMgJ52AjkjCQjkIeNQM5IMgJ52AjkjCQjkIeNQM5IMgJ52AjkjCQjkIeNQM5IMgJ52AjkjCQjkIeNQM5IMgJ52AjkjCQjkIeNQM5IMgJ52AjkjCQjkIeNQM5IMgJ52AjkjCQjkIeNQM5IMgJ52AjkjCQjkIeNQM5IMgJ52AjkjCQjkIeNQM5IMgJ52AjkjCQjkIeNQM5IMgJ52AjkjCQjkIeNQM5IMgJ52AjkjCQjkIeNQM5IMgJ52AjkjCQjkIeNQM5IMgJ52AjkjCQjkIeNQM5IMgJ52AjkjCQjkIeNQM5IMgJ52AjkjNwZhZwZgZyRO6OQMyOQM3JnFHJmBHJG7oxCzoxAzsidUciZEcgZuTMKOTMCOSN3RiFnRiBn5M4o5MwI5IzcGYWcGYGckTujkDMjkDNyZxRyZgRyRu6MQs6MQM7InVHImRHIGbkzCjkzAjkjd0YhZ0YgZ+TOKOTMCOSM3BmFnBmBnJE7o5AzI5AzcmcUcmYEckbujELOjEDOyJ1RyJkRyBm5Mwo5MwI5I3dGIWdGIGfkzijkzAjkjNwZhZwZgZyRO6OQMyOQM3JnFHJmBHJG7oxCzoxAzsidUciZEcgZuTMKOTMCOSN3RiFnRiBn5M4o5MwI5IzcGYWcGYGckTujkDMjkDNyZxRyZgRyRu6MQs6MQM7InVHImRHIGbkzCjkzAjkjTxuBvJE8bQTyRvK0EcgbydNGIG8kTxuBvJE8bQTyRvK0EcgbydNGIG8kTxuBvJE8bQTyRvK0EcgbydNGIG8kTxuBvJE8bQTyRvK0EcgbydNGIG8kTxuBvJE8bQTyRvK0EcgbydNGIG8kTxuBvJE8bQTyRvK0EcgbydNGIG8kTxuBvJE8bQTyRvK0EcgbydNGIG8kTxuBvJE8bQTyRvK0EcgbydNGIG8kTxuBvJE8bQTyRvK0EcgbydNGIG8kTxuBvJEkI5BivJEEkoxAivFGEkgyAinGG0kgyQikGG8kgSQjkGK8kQSSjECK8UYSSDICKcYbSSDJCKQYbySBJCOQYryRBJKMQIrxRhJIMgIpxhtJIMkIpBhvJIEkI5BivJEEkoxAivFGEkgyAinGG0kgyQikGG8kgSQjkGK8kQSSjECK8UYSSDICKcYbSSDJCKQYbySBJCOQYryRBJKMQIrxRhJIMgIpxhtJIMkIpBhvJIEkI5BivJEEkoxAivFGEkgyAinGG0kgyQikGG8kgSQjkGK8kQSSjECK8UYSSDICKcYbSSDJCKQYbySBJCOQYryRBJKMQIrxRhJIMgIpxhtJIMkIpBhvJIEkI5BivJEEkoxAivFGEkgy/pwEkow/J4Ek489JIMn4cxJIMv6cBJKMPyeBJOPPSSDJ+HMSSDL+nASSjD8ngSTjz0kgyfhzEkgy/pwEkow/J4Ek489JIMn4cxJIMv6cBJKMPyeBJOPPSSDJ+HMSSDL+nASSjD8ngSTjz0kgyfhzEkgy/pwEkow/J4Ek489JIMn4cxJIMv6cBJKMPyeBJOPPSSDJ+HMSSDL+nASSjD8ngSTjz0kgyfhzEkgy/pwEkowz8qxRSCDJOCPPGoUEkowz8qxRSCDJOCPPGoUEkowz8qxRSCDJOCPPGoUEkowz8qxRSCDJOCPPGoUEkowz8qxRSCDJOCPPGoUEkowz8qxRSCDJOCPPGoUEkowz8qxRSCDJOCPPGoUEkowz8qxRSCDJOCPPGoUEkowz8qxRSCDJOCPPGoUEkowz8qxRSCDJOCPPGoUEkowz8qxRSCDJOCPPGoUEkowz8qxRSCDJOCPPGoUEkowz8qxRSCDJOCPPGoUEkowz8qxRSCDJOCPPGoUEkowz8qxRSCDJOCPPGoUEkowz8qxRSCDJOCPPGoUEkowz8qxRSCDJOCPPGoUEkowz8qxRSCDJOCPPGoUEkowz8qxRSCDJOCPPGoUE8snkk8knk08mn0w+mXwy+WTyyeSTySeTTyafTD6ZfDL5ZPLJ5JPJJ5NPJp9MPpl8Mvlk8snkk8knk08mn0w+mXwy+WTyyeSTySeTTyaf7Aco4Xk8pwNXLAAAAABJRU5ErkJggg==;fontSize=48;" vertex="1" parent="1">
          <mxGeometry y="5000" width="300" height="300" as="geometry" />
        </mxCell>
        <mxCell id="6RiR2EWWeTwOWJ7hItFx-30" value="&lt;font style=&quot;font-size: 48px;&quot;&gt;ID=16&amp;nbsp; &amp;nbsp;(0,10)&lt;/font&gt;" style="text;html=1;align=center;verticalAlign=middle;resizable=0;points=[];autosize=1;strokeColor=none;fillColor=none;fontSize=48;" vertex="1" parent="1">
          <mxGeometry x="-10" y="5295" width="320" height="70" as="geometry" />
        </mxCell>
      </root>
    </mxGraphModel>
  </diagram>
</mxfile>
